<svg width="298" height="222" viewBox="0 0 298 222" fill="none" xmlns="http://www.w3.org/2000/svg">
<path d="M267.617 204.354H247.928V204.502H267.617V204.354Z" fill="#EBEBEB"/>
<path d="M197.066 205.972H191.9V206.121H197.066V205.972Z" fill="#EBEBEB"/>
<path d="M247.335 198.834H235.927V198.982H247.335V198.834Z" fill="#EBEBEB"/>
<path d="M57.0241 199.833H31.3486V199.982H57.0241V199.833Z" fill="#EBEBEB"/>
<path d="M66.0842 199.833H62.3212V199.982H66.0842V199.833Z" fill="#EBEBEB"/>
<path d="M134.009 202.343H78.3181V202.492H134.009V202.343Z" fill="#EBEBEB"/>
<path d="M141.886 168.253H27.0925C25.2199 168.253 23.6981 166.73 23.6981 164.856V3.39658C23.6981 1.52281 25.2199 0 27.0925 0H141.886C143.759 0 145.281 1.52281 145.281 3.39658V164.856C145.281 166.73 143.759 168.253 141.886 168.253ZM27.0925 0.148712C25.3031 0.148712 23.8467 1.60609 23.8467 3.39658V164.856C23.8467 166.646 25.3031 168.104 27.0925 168.104H141.886C143.676 168.104 145.132 166.646 145.132 164.856V3.39658C145.132 1.60609 143.676 0.148712 141.886 0.148712H27.0925Z" fill="#EBEBEB"/>
<path d="M270.472 168.253H155.678C153.806 168.253 152.284 166.73 152.284 164.856V3.39658C152.284 1.52281 153.806 0 155.678 0H270.472C272.345 0 273.866 1.52281 273.866 3.39658V164.856C273.866 166.73 272.345 168.253 270.472 168.253ZM155.678 0.148712C153.889 0.148712 152.432 1.60609 152.432 3.39658V164.856C152.432 166.646 153.889 168.104 155.678 168.104H270.472C272.261 168.104 273.718 166.646 273.718 164.856V3.39658C273.718 1.60609 272.261 0.148712 270.472 0.148712H155.678Z" fill="#EBEBEB"/>
<path d="M297.401 194.783H0.162109V194.932H297.401V194.783Z" fill="#EBEBEB"/>
<path d="M71.1004 154.542C70.601 148.796 64.7395 146.648 57.79 147.255C50.8465 147.862 45.4486 151.002 45.948 156.743L71.1004 154.542Z" fill="#F0F0F0"/>
<path d="M57.5649 144.626C60.787 144.346 61.8155 141.622 61.5361 138.392C61.2567 135.167 59.7705 132.663 56.5424 132.943C53.3204 133.222 52.2919 135.947 52.5713 139.177C52.8507 142.401 54.3369 144.905 57.5649 144.626Z" fill="#F0F0F0"/>
<path d="M202.345 32.1335C202.499 33.9121 201.186 35.4825 199.408 35.6372C197.631 35.7918 196.061 34.4772 195.907 32.6986C195.752 30.92 197.066 29.3496 198.843 29.195C200.621 29.0403 202.19 30.3549 202.345 32.1335Z" fill="#F5F5F5"/>
<path d="M220.22 30.5693C220.375 32.3479 219.061 33.9183 217.283 34.073C215.506 34.2276 213.936 32.913 213.782 31.1344C213.627 29.3558 214.941 27.7854 216.718 27.6308C218.496 27.4761 220.065 28.7907 220.22 30.5693Z" fill="#F5F5F5"/>
<path d="M238.102 29.0049C238.257 30.7835 236.943 32.3539 235.166 32.5085C233.388 32.6632 231.819 31.3486 231.664 29.57C231.51 27.7914 232.823 26.221 234.601 26.0663C236.378 25.9117 237.948 27.2263 238.102 29.0049Z" fill="#F5F5F5"/>
<path d="M203.938 50.3657C204.092 52.1443 202.779 53.7147 201.001 53.8693C199.224 54.024 197.654 52.7094 197.5 50.9308C197.345 49.1522 198.659 47.5818 200.436 47.4272C202.214 47.2725 203.783 48.5871 203.938 50.3657Z" fill="#F5F5F5"/>
<path d="M221.815 48.8012C221.969 50.5798 220.656 52.1502 218.878 52.3049C217.101 52.4596 215.531 51.1449 215.377 49.3664C215.222 47.5878 216.536 46.0174 218.313 45.8627C220.091 45.708 221.66 47.0227 221.815 48.8012Z" fill="#F5F5F5"/>
<path d="M239.696 47.237C239.851 49.0156 238.537 50.586 236.76 50.7407C234.982 50.8954 233.413 49.5807 233.258 47.8021C233.104 46.0236 234.417 44.4532 236.195 44.2985C237.972 44.1438 239.542 45.4584 239.696 47.237Z" fill="#F5F5F5"/>
<path d="M205.531 68.5979C205.686 70.3765 204.372 71.9469 202.594 72.1015C200.817 72.2562 199.247 70.9416 199.093 69.163C198.938 67.3844 200.252 65.814 202.03 65.6593C203.807 65.5047 205.377 66.8193 205.531 68.5979Z" fill="#F5F5F5"/>
<path d="M223.413 67.0332C223.567 68.8118 222.254 70.3822 220.476 70.5368C218.699 70.6915 217.129 69.3769 216.975 67.5983C216.82 65.8197 218.134 64.2493 219.911 64.0946C221.689 63.94 223.258 65.2546 223.413 67.0332Z" fill="#F5F5F5"/>
<path d="M241.289 65.4687C241.443 67.2473 240.129 68.8177 238.352 68.9724C236.574 69.127 235.005 67.8124 234.85 66.0338C234.696 64.2552 236.01 62.6848 237.787 62.5302C239.565 62.3755 241.134 63.6901 241.289 65.4687Z" fill="#F5F5F5"/>
<path d="M237.425 66.5219L200.692 69.74L233.258 30.141L199.89 33.0618C199.497 33.0974 199.159 32.806 199.123 32.4193C199.087 32.0267 199.379 31.6877 199.765 31.652L236.498 28.4338L203.932 68.0328L237.3 65.1121C237.693 65.0764 238.031 65.3679 238.067 65.7546C238.103 66.1472 237.812 66.4862 237.425 66.5219Z" fill="#E6E6E6"/>
<path d="M237.989 137.202C237.87 136.851 237.555 136.59 237.186 136.566C235.504 136.453 234.077 135.822 232.953 134.692C231.485 133.217 230.623 130.968 230.48 128.303C230.457 127.804 230.041 127.417 229.541 127.417C228.988 127.417 228.554 127.881 228.584 128.428C228.756 131.557 229.809 134.228 231.61 136.036C233.013 137.446 234.826 138.273 236.889 138.451C236.925 138.451 236.972 138.457 237.026 138.463C237.709 138.517 238.226 137.851 238.001 137.202H237.989Z" fill="#F0F0F0"/>
<path d="M236.085 148.623C228.208 147.933 222.525 142.561 220.724 134.174C220.611 133.639 220.95 133.115 221.491 133.02C221.99 132.931 222.471 133.252 222.578 133.746C224.189 141.288 229.248 146.119 236.251 146.731C243.932 147.403 252.178 142.347 253.652 129.606C253.711 129.088 254.163 128.707 254.68 128.755C255.209 128.803 255.608 129.273 255.542 129.802C254.127 141.818 246.233 149.521 236.079 148.629L236.085 148.623Z" fill="#F0F0F0"/>
<path d="M221.224 125.816C220.695 125.769 220.297 125.299 220.362 124.77C221.777 112.754 229.672 105.05 239.825 105.943C248.719 106.722 254.711 113.384 255.65 123.419C255.698 123.949 255.288 124.413 254.759 124.442C254.241 124.472 253.801 124.08 253.754 123.568C252.898 114.526 247.559 108.536 239.665 107.84C231.984 107.168 223.739 112.224 222.264 124.966C222.205 125.483 221.753 125.864 221.236 125.816H221.224Z" fill="#F0F0F0"/>
<path d="M236.472 143.525C235.01 143.394 233.636 143.055 232.37 142.502C231.859 142.276 231.645 141.657 231.912 141.17C232.144 140.741 232.667 140.557 233.113 140.753C234.296 141.277 235.61 141.58 237.019 141.657C242.845 141.99 248.992 137.862 249.592 127.893C249.961 121.748 247.862 116.787 243.933 114.413C243.511 114.158 243.356 113.628 243.57 113.182C243.814 112.682 244.444 112.498 244.92 112.783C249.461 115.526 251.905 121.129 251.489 128C250.906 137.618 244.914 144.013 236.906 143.555C236.757 143.549 236.609 143.537 236.46 143.525H236.472Z" fill="#F0F0F0"/>
<path d="M228.007 137.595C227.549 137.91 226.919 137.761 226.639 137.28C224.951 134.365 224.166 130.599 224.41 126.56C224.963 117.358 230.48 111.106 237.964 110.987C238.517 110.975 238.969 111.445 238.939 111.999C238.909 112.498 238.511 112.885 238.012 112.897C232.459 113.004 226.883 117.203 226.312 126.679C226.092 130.356 226.794 133.752 228.298 136.352C228.548 136.78 228.417 137.321 228.007 137.601V137.595Z" fill="#F0F0F0"/>
<path d="M241.003 136.815C240.807 136.375 240.979 135.864 241.389 135.614C243.886 134.109 245.426 130.944 245.45 127.137C245.467 124.086 244.588 121.504 242.959 119.868C241.704 118.607 240.081 117.971 238.132 117.977C235.201 117.982 232.829 119.589 231.515 122.42C231.307 122.866 230.796 123.074 230.332 122.908C229.809 122.717 229.559 122.111 229.797 121.605C231.426 118.131 234.475 116.085 238.132 116.073C240.569 116.073 242.703 116.918 244.308 118.53C246.3 120.528 247.382 123.592 247.358 127.155C247.328 131.652 245.438 135.423 242.352 137.267C241.865 137.559 241.235 137.339 241.003 136.821V136.815Z" fill="#F0F0F0"/>
<path d="M234.154 129.82C233.613 130.04 233.007 129.725 232.87 129.16C232.805 128.904 232.757 128.636 232.716 128.363C232.175 124.806 234.089 121.706 237.162 121.153C238.75 120.868 240.165 121.242 241.247 122.206C241.686 122.599 241.651 123.301 241.175 123.64L241.116 123.681C240.753 123.937 240.283 123.884 239.945 123.592C239.297 123.039 238.482 122.848 237.501 123.021C235.159 123.437 234.267 125.876 234.6 128.071C234.63 128.285 234.672 128.494 234.719 128.69C234.832 129.154 234.6 129.636 234.154 129.814V129.82Z" fill="#F0F0F0"/>
<path d="M237.299 133.484C237.299 133.484 237.299 133.484 237.293 133.484C236.639 133.425 236.276 132.693 236.627 132.134L236.71 132.003C236.889 131.723 237.198 131.569 237.531 131.593C237.81 131.61 238.113 131.593 238.422 131.539C240.467 131.17 241.407 129.267 241.389 127.327C241.389 126.846 241.722 126.429 242.197 126.352C242.756 126.269 243.285 126.685 243.291 127.25C243.351 130.355 241.52 132.919 238.755 133.413C238.256 133.502 237.768 133.526 237.305 133.484H237.299Z" fill="#F0F0F0"/>
<path d="M237.72 129.969C236.71 129.879 235.955 129.195 235.675 128.22C235.515 127.655 235.991 127.107 236.573 127.161L236.793 127.179C237.132 127.209 237.411 127.441 237.524 127.762C237.578 127.916 237.685 128.053 237.881 128.071C238.339 128.113 238.416 127.452 238.428 127.322C238.434 127.226 238.458 126.864 238.297 126.649C238.143 126.441 238.041 126.197 238.059 125.936C238.131 125.091 239.201 124.746 239.742 125.406C240.17 125.93 240.39 126.661 240.318 127.488C240.182 129.047 239.082 130.088 237.709 129.969H237.72Z" fill="#F0F0F0"/>
<path d="M219.839 108.679C219.316 108.631 218.929 108.173 218.977 107.65L219.696 99.3994L227.942 100.119C228.465 100.167 228.851 100.625 228.804 101.148C228.756 101.672 228.298 102.058 227.775 102.011L221.426 101.458L220.873 107.811C220.826 108.334 220.368 108.721 219.845 108.673L219.839 108.679Z" fill="#F0F0F0"/>
<path d="M259.032 112.112C258.509 112.064 258.122 111.606 258.17 111.083L258.723 104.73L252.374 104.176C251.851 104.129 251.464 103.671 251.512 103.147C251.559 102.624 252.017 102.237 252.54 102.285L260.786 103.004L260.066 111.255C260.019 111.778 259.561 112.165 259.038 112.118L259.032 112.112Z" fill="#F0F0F0"/>
<path d="M256.113 156.457L247.868 155.737C247.345 155.69 246.958 155.232 247.006 154.708C247.054 154.185 247.511 153.798 248.034 153.846L254.384 154.399L254.936 148.046C254.984 147.522 255.442 147.136 255.965 147.183C256.488 147.231 256.874 147.689 256.827 148.212L256.107 156.463L256.113 156.457Z" fill="#F0F0F0"/>
<path d="M223.269 153.578L215.023 152.858L215.743 144.608C215.79 144.084 216.248 143.698 216.771 143.745C217.294 143.793 217.681 144.251 217.633 144.774L217.08 151.127L223.429 151.68C223.952 151.728 224.339 152.186 224.291 152.71C224.244 153.233 223.786 153.62 223.263 153.572L223.269 153.578Z" fill="#F0F0F0"/>
<path d="M44.5875 135.726C44.2665 135.756 43.9811 135.518 43.9514 135.197L43.5056 130.123L48.5765 129.677C48.8975 129.647 49.1828 129.885 49.2125 130.206C49.2423 130.527 49.0045 130.813 48.6835 130.843L44.7837 131.182L45.1225 135.084C45.1523 135.405 44.9145 135.691 44.5934 135.72L44.5875 135.726Z" fill="#E0E0E0"/>
<path d="M68.6878 133.621C68.3667 133.65 68.0814 133.412 68.0517 133.091L67.7128 129.189L63.813 129.528C63.492 129.558 63.2067 129.32 63.1769 128.999C63.1472 128.677 63.385 128.392 63.706 128.362L68.7769 127.916L69.2228 132.99C69.2525 133.311 69.0147 133.597 68.6937 133.627L68.6878 133.621Z" fill="#E0E0E0"/>
<path d="M71.185 155.457L66.1141 155.904C65.7931 155.933 65.5078 155.695 65.478 155.374C65.4483 155.053 65.6861 154.767 66.0071 154.738L69.9069 154.399L69.568 150.496C69.5383 150.175 69.7761 149.89 70.0971 149.86C70.4181 149.83 70.7035 150.068 70.7332 150.389L71.1791 155.463L71.185 155.457Z" fill="#E0E0E0"/>
<path d="M50.9847 157.224L45.9138 157.67L45.4679 152.596C45.4382 152.275 45.676 151.99 45.997 151.96C46.318 151.93 46.6034 152.168 46.6331 152.489L46.9719 156.391L50.8717 156.052C51.1927 156.023 51.4781 156.261 51.5078 156.582C51.5375 156.903 51.2997 157.188 50.9787 157.218L50.9847 157.224Z" fill="#E0E0E0"/>
<path d="M68.278 51.157L48.8802 52.8523L48.4819 48.3077C48.0717 43.5965 51.5672 39.4266 56.2755 39.0162C60.9838 38.6057 65.1511 42.1034 65.5613 46.8146L65.7931 49.4557L68.5931 49.2119L68.3613 46.5707C67.8143 40.3129 62.2797 35.6672 56.0318 36.2144C49.7779 36.7617 45.135 42.2997 45.6819 48.5516L46.0802 53.12C43.8212 53.5602 42.2161 55.6422 42.4182 57.9859L43.8034 73.8326C44.0233 76.3369 46.2288 78.1928 48.7375 77.9727L70.4538 76.0692C72.9566 75.8491 74.8113 73.6422 74.5914 71.132L73.2063 55.2853C72.9863 52.7809 70.7808 50.925 68.2721 51.1451L68.278 51.157ZM60.0386 63.3692L60.5141 68.824C60.5914 69.7222 59.9316 70.5074 59.0339 70.5907C58.1362 70.668 57.3515 70.0077 57.2683 69.1095L56.7927 63.6548C56.0793 63.2146 55.574 62.4651 55.4908 61.5668C55.36 60.0619 56.4717 58.7294 57.9817 58.5986C59.4857 58.4677 60.8173 59.58 60.9481 61.091C61.0254 61.9892 60.6568 62.816 60.0326 63.3752L60.0386 63.3692Z" fill="#EBEBEB"/>
<path d="M101.485 60.3414L99.5233 57.1411C98.4592 57.2898 97.5913 57.2898 96.5272 57.1411L94.5654 60.3414L94.1909 60.2403C92.9246 59.9012 91.706 59.3956 90.5646 58.7353L90.2257 58.539L91.058 55.0651C91.1234 54.7855 91.4087 54.613 91.6881 54.6785C91.9675 54.7439 92.1399 55.0294 92.0745 55.309L91.4265 58.0155C92.2767 58.4795 93.1624 58.8483 94.0839 59.122L95.9981 55.999L96.3429 56.0585C97.4546 56.2429 98.5841 56.2429 99.6957 56.0585L100.041 55.999L101.955 59.122C102.87 58.8483 103.762 58.4795 104.612 58.0155L103.762 54.4584L104.047 54.2561C104.826 53.697 105.516 53.0367 106.11 52.2872C106.289 52.0671 106.604 52.0135 106.829 52.1801C107.067 52.3526 107.127 52.6917 106.942 52.9237C106.36 53.6613 105.688 54.3215 104.939 54.8986L105.813 58.545L105.474 58.7413C104.333 59.4015 103.114 59.9072 101.854 60.2462L101.479 60.3473L101.485 60.3414ZM89.4648 53.3579C89.2983 53.1675 89.1378 52.9772 88.9892 52.7749L85.345 53.6494L85.1489 53.3103C84.489 52.1682 83.9837 50.9488 83.6448 49.6817L83.5438 49.307L86.7421 47.344C86.6707 46.8086 86.6351 46.3209 86.6351 45.845C86.6351 45.3691 86.6707 44.8813 86.7421 44.346L83.5438 42.383L83.6448 42.0082C83.9837 40.7412 84.489 39.5217 85.1489 38.3796L85.345 38.0406L88.9892 38.915C89.6015 38.1179 90.3089 37.41 91.1055 36.7973L90.4457 34.0373C90.3803 33.7577 90.5527 33.4721 90.8321 33.4067C91.1115 33.3413 91.3968 33.5138 91.4622 33.7934L92.2826 37.2316L91.9972 37.4398C91.0817 38.1001 90.2852 38.8972 89.6253 39.8132L89.4232 40.0988L85.8622 39.2481C85.4045 40.0988 85.03 40.9851 84.7624 41.9071L87.8835 43.8225L87.83 44.1675C87.7289 44.7802 87.6813 45.3275 87.6813 45.845C87.6813 46.3625 87.7289 46.9097 87.83 47.5224L87.8894 47.8675L84.7684 49.7829C85.0419 50.6989 85.4104 51.5912 85.8682 52.4418L89.4291 51.5912L89.6312 51.8767C89.8274 52.1444 90.0295 52.4061 90.2495 52.656C90.4338 52.8642 90.4278 53.1735 90.2257 53.3698L90.2079 53.3876C89.9998 53.5899 89.6609 53.572 89.4707 53.3519L89.4648 53.3579ZM110.711 53.6494L109.368 53.3282C109.088 53.2627 108.916 52.9772 108.981 52.6976C109.047 52.418 109.332 52.2455 109.612 52.311L110.194 52.4478C110.652 51.5971 111.026 50.7108 111.294 49.7888L108.173 47.8734L108.232 47.5284C108.334 46.9157 108.381 46.3684 108.381 45.8509C108.381 45.3334 108.334 44.7861 108.232 44.1735L108.179 43.8284L111.3 41.913C111.026 40.997 110.658 40.1047 110.2 39.2541L106.639 40.1047L106.431 39.8192C105.771 38.9031 104.975 38.106 104.059 37.4457L103.774 37.2375L104.624 33.6744C103.774 33.2104 102.888 32.8416 101.967 32.568L100.052 35.6909L99.7076 35.6374C98.596 35.4589 97.4664 35.4589 96.3548 35.6374L96.01 35.6909L94.0958 32.568C93.9769 32.6037 93.858 32.6394 93.7391 32.681C93.4716 32.7702 93.1862 32.6275 93.0911 32.3657C92.99 32.0921 93.1327 31.7828 93.4121 31.6876C93.6737 31.6043 93.9352 31.527 94.1968 31.4556L94.5713 31.3545L96.5331 34.5548C97.5972 34.4061 98.4592 34.4061 99.5293 34.5548L101.491 31.3545L101.866 31.4556C103.132 31.7947 104.351 32.3003 105.486 32.9606L105.825 33.1569L104.951 36.8033C105.748 37.416 106.455 38.1239 107.067 38.921L110.711 38.0465L110.908 38.3856C111.567 39.5277 112.073 40.7471 112.412 42.0142L112.513 42.3889L109.314 44.3519C109.386 44.8873 109.421 45.381 109.421 45.8509C109.421 46.3209 109.386 46.8146 109.314 47.3499L112.513 49.3129L112.412 49.6877C112.073 50.9547 111.567 52.1741 110.908 53.3163L110.711 53.6553V53.6494ZM97.8826 50.9488C95.2253 50.8714 93.0138 48.6586 92.9365 45.9996C92.8592 43.3228 94.8626 41.0862 97.4427 40.7828C97.7518 40.7471 98.0312 40.991 98.0312 41.3063C98.0312 41.568 97.835 41.7941 97.5735 41.8238C95.2966 42.0796 93.5845 44.2389 94.0601 46.6659C94.3692 48.2422 95.6414 49.5152 97.2168 49.8245C99.8027 50.3301 102.08 48.3493 102.08 45.8509C102.08 45.0122 101.824 44.2032 101.348 43.5251C101.2 43.3109 101.241 43.0194 101.438 42.8469C101.675 42.6387 102.038 42.6804 102.216 42.9421C102.811 43.7928 103.126 44.8099 103.126 45.8569C103.126 48.7181 100.76 51.038 97.8826 50.9547V50.9488Z" fill="#F0F0F0"/>
<path d="M64.5504 103.884L63.2841 101.82C62.6005 101.915 62.0357 101.915 61.3521 101.82L60.0858 103.884L59.8421 103.819C59.0277 103.599 58.237 103.271 57.4999 102.849L57.2799 102.724L57.8149 100.482C57.8565 100.297 58.0408 100.19 58.2251 100.232C58.4094 100.273 58.5164 100.458 58.4748 100.642L58.0527 102.391C58.5996 102.688 59.1763 102.926 59.7708 103.105L61.0073 101.088L61.2332 101.124C61.9525 101.243 62.6837 101.243 63.3971 101.124L63.623 101.088L64.8595 103.105C65.454 102.926 66.0306 102.688 66.5775 102.391L66.0247 100.089L66.209 99.9581C66.7143 99.5952 67.1601 99.1729 67.5406 98.6851C67.6535 98.5424 67.8557 98.5067 68.0043 98.6137C68.1589 98.7268 68.1945 98.9469 68.0756 99.0956C67.6952 99.5714 67.2612 99.9997 66.7797 100.369L67.3444 102.724L67.1245 102.849C66.3873 103.277 65.6026 103.605 64.7822 103.819L64.5385 103.884H64.5504ZM56.7865 99.3751C56.6795 99.2562 56.5784 99.1253 56.4774 99.0004L54.1232 99.5655L53.9984 99.3454C53.5704 98.6078 53.2434 97.8226 53.0294 97.0017L52.964 96.7578L55.0268 95.4908C54.9793 95.1458 54.9555 94.8305 54.9555 94.5212C54.9555 94.2119 54.9793 93.8966 55.0268 93.5516L52.964 92.2846L53.0294 92.0407C53.2493 91.2257 53.5763 90.4346 53.9984 89.697L54.1232 89.4769L56.4774 90.042C56.8697 89.5245 57.3334 89.0664 57.8447 88.6738L57.4166 86.8893C57.375 86.7109 57.482 86.5264 57.6663 86.4848C57.8447 86.4432 58.0289 86.5502 58.0706 86.7346L58.5996 88.9534L58.4154 89.0902C57.8268 89.5126 57.3096 90.0301 56.8816 90.6249L56.7508 90.8093L54.4502 90.2561C54.1529 90.8034 53.9152 91.3804 53.7368 91.9752L55.7521 93.2125L55.7164 93.4386C55.651 93.8371 55.6213 94.1881 55.6213 94.5212C55.6213 94.8543 55.651 95.2112 55.7164 95.6038L55.7521 95.8299L53.7368 97.0671C53.9152 97.662 54.1529 98.239 54.4502 98.7863L56.7508 98.233L56.8816 98.4174C57.0064 98.5899 57.1432 98.7625 57.2799 98.9231C57.3988 99.0599 57.3929 99.2562 57.268 99.3811L57.2561 99.393C57.1194 99.5239 56.9054 99.512 56.7805 99.3692L56.7865 99.3751ZM70.513 99.5655L69.6451 99.3573C69.4608 99.3157 69.3538 99.1313 69.3954 98.9469C69.437 98.7625 69.6213 98.6554 69.8056 98.697L70.1801 98.7863C70.4773 98.239 70.7151 97.662 70.8935 97.0671L68.8782 95.8299L68.9138 95.6038C68.9792 95.2053 69.009 94.8543 69.009 94.5212C69.009 94.1881 68.9792 93.8312 68.9138 93.4386L68.8782 93.2125L70.8935 91.9752C70.7151 91.3804 70.4773 90.8034 70.1801 90.2561L67.8795 90.8093L67.7487 90.6249C67.3266 90.036 66.8094 89.5185 66.2149 89.0902L66.0306 88.9534L66.5835 86.6514C66.0366 86.3539 65.4599 86.116 64.8654 85.9375L63.6289 87.9541L63.403 87.9184C62.6837 87.7994 61.9525 87.7994 61.2332 87.9184L61.0073 87.9541L59.7708 85.9375C59.6935 85.9613 59.6162 85.9851 59.5389 86.0089C59.3665 86.0625 59.1822 85.9732 59.1228 85.8007C59.0574 85.6223 59.1525 85.42 59.3309 85.3665C59.4973 85.313 59.6697 85.2594 59.8362 85.2178L60.0799 85.1523L61.3461 87.2165C62.0357 87.1213 62.5886 87.1213 63.2782 87.2165L64.5444 85.1523L64.7882 85.2178C65.6026 85.4379 66.3933 85.765 67.1304 86.1874L67.3504 86.3123L66.7856 88.6679C67.3028 89.0605 67.7606 89.5245 68.1529 90.036L70.507 89.4709L70.6319 89.691C71.0599 90.4286 71.3869 91.2138 71.6009 92.0347L71.6663 92.2786L69.6034 93.5456C69.651 93.8907 69.6748 94.2059 69.6748 94.5152C69.6748 94.8246 69.651 95.1398 69.6034 95.4848L71.6663 96.7519L71.6009 96.9958C71.3809 97.8107 71.054 98.6018 70.6319 99.3395L70.507 99.5595L70.513 99.5655ZM62.226 97.8226C60.5079 97.775 59.0812 96.3414 59.0277 94.6283C58.9801 92.8973 60.2701 91.4518 61.9406 91.2614C62.1427 91.2376 62.3211 91.3982 62.3211 91.6005C62.3211 91.773 62.1962 91.9158 62.0238 91.9336C60.5555 92.1002 59.4497 93.4921 59.7529 95.0625C59.9551 96.0797 60.7754 96.9006 61.792 97.1028C63.4625 97.43 64.9308 96.1511 64.9308 94.539C64.9308 93.9977 64.7644 93.4743 64.4553 93.0341C64.3601 92.8973 64.3839 92.7069 64.5088 92.5939C64.6633 92.4571 64.8952 92.4868 65.0141 92.6534C65.3945 93.2006 65.6026 93.8609 65.6026 94.5331C65.6026 96.3831 64.0748 97.8761 62.2141 97.8286L62.226 97.8226Z" fill="#E6E6E6"/>
<path d="M148.781 221.319C212.439 221.319 264.044 218.304 264.044 214.585C264.044 210.867 212.439 207.852 148.781 207.852C85.1227 207.852 33.5176 210.867 33.5176 214.585C33.5176 218.304 85.1227 221.319 148.781 221.319Z" fill="#F5F5F5"/>
<path d="M216.226 54.054H196.87L183.179 210.648H202.536C208.04 210.648 212.909 206.168 213.391 200.66L225.334 64.0474C225.815 58.5391 221.731 54.0599 216.226 54.0599V54.054Z" fill="#00337C"/>
<path d="M212.278 54.054H146.767C141.262 54.054 136.393 58.5332 135.912 64.0414L123.968 200.654C123.487 206.162 127.571 210.642 133.076 210.642H198.587C204.092 210.642 208.961 206.162 209.443 200.654L221.386 64.0414C221.867 58.5332 217.783 54.054 212.278 54.054Z" fill="#00337C"/>
<path opacity="0.3" d="M212.278 54.054H146.767C141.262 54.054 136.393 58.5332 135.912 64.0414L123.968 200.654C123.487 206.162 127.571 210.642 133.076 210.642H198.587C204.092 210.642 208.961 206.162 209.443 200.654L221.386 64.0414C221.867 58.5332 217.783 54.054 212.278 54.054Z" fill="white"/>
<path opacity="0.4" d="M211.999 57.2546H194.729C193.713 57.2546 192.756 57.9209 192.375 58.9024C190.978 62.5131 187.441 64.9877 183.678 64.9877H173.465C169.696 64.9877 166.593 62.5131 165.832 58.9024C165.624 57.9268 164.786 57.2546 163.769 57.2546H146.499C142.754 57.2546 139.449 60.2943 139.122 64.0418L127.179 200.654C126.852 204.402 129.622 207.442 133.367 207.442H198.879C202.624 207.442 205.929 204.402 206.256 200.654L218.199 64.0418C218.526 60.2943 215.756 57.2546 212.011 57.2546H211.999Z" fill="white"/>
<path d="M195.674 131.468H149.827C148.466 131.468 147.461 130.367 147.58 129.005L147.812 126.382C147.931 125.02 149.132 123.919 150.487 123.919H196.333C197.695 123.919 198.699 125.02 198.581 126.382L198.349 129.005C198.23 130.367 197.029 131.468 195.674 131.468Z" fill="white"/>
<path d="M194.687 142.793H148.841C147.48 142.793 146.475 141.693 146.594 140.331L146.826 137.708C146.945 136.345 148.145 135.245 149.501 135.245H195.347C196.708 135.245 197.713 136.345 197.594 137.708L197.362 140.331C197.243 141.693 196.042 142.793 194.687 142.793Z" fill="white"/>
<path opacity="0.1" d="M181.746 59.8185C181.615 61.3294 180.283 62.5488 178.779 62.5488C177.275 62.5488 176.158 61.3234 176.288 59.8185C176.419 58.3076 177.751 57.0881 179.255 57.0881C180.759 57.0881 181.876 58.3135 181.746 59.8185Z" fill="black"/>
<path opacity="0.1" d="M180.51 59.818C180.439 60.6449 179.714 61.3111 178.887 61.3111C178.061 61.3111 177.455 60.6449 177.526 59.818C177.597 58.9912 178.323 58.325 179.149 58.325C179.975 58.325 180.582 58.9912 180.51 59.818Z" fill="black"/>
<g opacity="0.8">
<path d="M203.932 64.3685C203.492 64.3685 203.165 64.0116 203.201 63.5654L203.331 62.1021C203.373 61.6619 203.759 61.2991 204.199 61.2991C204.639 61.2991 204.966 61.656 204.931 62.1021L204.8 63.5654C204.758 64.0056 204.372 64.3685 203.932 64.3685Z" fill="white"/>
<path d="M210.328 64.3687C209.888 64.3687 209.561 64.0118 209.597 63.5656L209.894 60.1334C209.93 59.6932 210.322 59.3303 210.762 59.3303C211.202 59.3303 211.529 59.6872 211.493 60.1334L211.196 63.5656C211.16 64.0058 210.768 64.3687 210.328 64.3687Z" fill="white"/>
<path d="M207.13 64.3685C206.69 64.3685 206.364 64.0116 206.399 63.5655L206.613 61.1207C206.655 60.6805 207.041 60.3176 207.481 60.3176C207.921 60.3176 208.248 60.6745 208.212 61.1207L207.998 63.5655C207.963 64.0057 207.57 64.3685 207.13 64.3685Z" fill="white"/>
</g>
<g opacity="0.8">
<path d="M149.163 64.3686H145.144C144.895 64.3686 144.71 64.1664 144.734 63.9166L144.924 61.7573C144.948 61.5074 145.168 61.3052 145.418 61.3052H149.437C149.686 61.3052 149.871 61.5074 149.847 61.7573L149.657 63.9166C149.633 64.1664 149.413 64.3686 149.163 64.3686Z" fill="white"/>
<path d="M151.025 63.7857C150.775 63.7857 150.591 63.5834 150.615 63.3336L150.704 62.3461C150.728 62.0963 150.947 61.894 151.197 61.894C151.447 61.894 151.631 62.0963 151.607 62.3461L151.518 63.3336C151.494 63.5834 151.274 63.7857 151.025 63.7857Z" fill="white"/>
</g>
<path d="M188.121 114.203C196.121 106.541 196.918 94.384 189.903 87.051C182.887 79.718 170.715 79.9853 162.716 87.648C154.716 95.3108 153.918 107.467 160.934 114.8C167.949 122.133 180.121 121.866 188.121 114.203Z" fill="white"/>
<path d="M175.486 100.19C170.439 100.19 166.183 102.112 165.82 106.281L165.416 110.909H183.684L184.089 106.281C184.451 102.112 180.534 100.19 175.486 100.19Z" fill="#00337C"/>
<path d="M175.653 98.2811C177.995 98.2811 179.071 96.3835 179.28 94.0398C179.482 91.6961 178.739 89.7986 176.396 89.7986C174.054 89.7986 172.978 91.6961 172.77 94.0398C172.568 96.3835 173.311 98.2811 175.653 98.2811Z" fill="#00337C"/>
<path d="M193.581 127.553C192.333 127.553 191.287 128.029 191.192 129.058L191.091 130.201H195.603L195.704 129.058C195.793 128.029 194.824 127.553 193.581 127.553Z" fill="#00337C"/>
<path d="M193.623 127.084C194.2 127.084 194.467 126.614 194.521 126.037C194.574 125.46 194.384 124.99 193.808 124.99C193.231 124.99 192.963 125.46 192.91 126.037C192.856 126.614 193.047 127.084 193.623 127.084Z" fill="#00337C"/>
<path d="M179.689 154.119H161.849C159.762 154.119 158.222 152.43 158.407 150.342C158.591 148.254 160.428 146.565 162.508 146.565H180.349C182.435 146.565 183.975 148.254 183.791 150.342C183.606 152.43 181.77 154.119 179.689 154.119Z" fill="#00337C"/>
<path d="M177.537 196.217H158.442C156.243 196.217 154.614 194.432 154.804 192.225L156.023 178.288C156.213 176.087 158.157 174.296 160.357 174.296H179.451C181.651 174.296 183.28 176.081 183.089 178.288L181.871 192.225C181.681 194.426 179.737 196.217 177.537 196.217Z" fill="#00337C"/>
<g opacity="0.6">
<path d="M171.652 181.816C171.765 180.489 170.79 179.412 169.464 179.412C168.139 179.412 166.973 180.489 166.854 181.816C166.783 182.607 167.11 183.297 167.663 183.737L167.241 188.537C167.17 189.323 167.752 189.965 168.543 189.965C169.333 189.965 170.023 189.328 170.094 188.537L170.516 183.737C171.141 183.297 171.587 182.607 171.658 181.816H171.652Z" fill="white"/>
</g>
<path d="M179.624 177.205H177.163L177.763 170.311C178.126 166.171 175.052 162.798 170.909 162.798C166.765 162.798 163.103 166.171 162.741 170.311L162.14 177.205H159.679L160.28 170.311C160.761 164.809 165.624 160.335 171.123 160.335C176.622 160.335 180.7 164.809 180.218 170.311L179.618 177.205H179.624Z" fill="#00337C"/>
<path d="M193.885 138.112L193.944 137.452C194.004 136.774 193.504 136.226 192.827 136.226C192.149 136.226 191.555 136.774 191.495 137.452L191.436 138.112C191.168 138.112 190.93 138.332 190.907 138.6L190.752 140.361C190.728 140.628 190.93 140.848 191.198 140.848H193.647C193.915 140.848 194.152 140.628 194.176 140.361L194.331 138.6C194.355 138.332 194.152 138.112 193.885 138.112ZM192.797 136.53C193.308 136.53 193.683 136.946 193.641 137.452L193.582 138.112H191.739L191.798 137.452C191.84 136.94 192.292 136.53 192.803 136.53H192.797Z" fill="#00337C"/>
<path d="M157.016 138.82L156.16 138.641C156.059 138.617 156.005 138.516 156.047 138.415L156.404 137.57C156.481 137.392 156.261 137.255 156.124 137.398L155.476 138.064C155.399 138.142 155.274 138.142 155.215 138.064L154.686 137.398C154.573 137.255 154.329 137.386 154.377 137.57L154.585 138.415C154.608 138.516 154.537 138.623 154.436 138.641L153.55 138.82C153.36 138.855 153.336 139.123 153.52 139.165L154.377 139.343C154.478 139.367 154.531 139.468 154.489 139.569L154.133 140.414C154.055 140.592 154.275 140.729 154.412 140.586L155.06 139.92C155.137 139.843 155.262 139.843 155.322 139.92L155.851 140.586C155.964 140.729 156.208 140.598 156.16 140.414L155.952 139.569C155.928 139.468 155.999 139.361 156.1 139.343L156.986 139.165C157.176 139.129 157.2 138.861 157.016 138.82Z" fill="#263238"/>
<path d="M162.641 138.82L161.785 138.641C161.684 138.617 161.63 138.516 161.672 138.415L162.029 137.57C162.106 137.392 161.886 137.255 161.749 137.398L161.101 138.064C161.024 138.142 160.899 138.142 160.84 138.064L160.311 137.398C160.198 137.255 159.954 137.386 160.002 137.57L160.21 138.415C160.233 138.516 160.162 138.623 160.061 138.641L159.175 138.82C158.985 138.855 158.961 139.123 159.146 139.165L160.002 139.343C160.103 139.367 160.156 139.468 160.115 139.569L159.758 140.414C159.681 140.592 159.901 140.729 160.037 140.586L160.685 139.92C160.763 139.843 160.887 139.843 160.947 139.92L161.476 140.586C161.589 140.729 161.833 140.598 161.785 140.414L161.577 139.569C161.553 139.468 161.625 139.361 161.726 139.343L162.611 139.165C162.802 139.129 162.825 138.861 162.641 138.82Z" fill="#263238"/>
<path d="M168.264 138.82L167.408 138.641C167.307 138.617 167.254 138.516 167.295 138.415L167.652 137.57C167.729 137.392 167.509 137.255 167.373 137.398L166.725 138.064C166.647 138.142 166.523 138.142 166.463 138.064L165.934 137.398C165.821 137.255 165.577 137.386 165.625 137.57L165.833 138.415C165.857 138.516 165.785 138.623 165.684 138.641L164.799 138.82C164.608 138.855 164.585 139.123 164.769 139.165L165.625 139.343C165.726 139.367 165.779 139.468 165.738 139.569L165.381 140.414C165.304 140.592 165.524 140.729 165.661 140.586L166.309 139.92C166.386 139.843 166.511 139.843 166.57 139.92L167.099 140.586C167.212 140.729 167.456 140.598 167.408 140.414L167.2 139.569C167.177 139.468 167.248 139.361 167.349 139.343L168.235 139.165C168.425 139.129 168.449 138.861 168.264 138.82Z" fill="#263238"/>
<path d="M173.893 138.82L173.037 138.641C172.936 138.617 172.883 138.516 172.924 138.415L173.281 137.57C173.358 137.392 173.138 137.255 173.002 137.398L172.354 138.064C172.276 138.142 172.152 138.142 172.092 138.064L171.563 137.398C171.45 137.255 171.206 137.386 171.254 137.57L171.462 138.415C171.486 138.516 171.414 138.623 171.313 138.641L170.428 138.82C170.237 138.855 170.214 139.123 170.398 139.165L171.254 139.343C171.355 139.367 171.409 139.468 171.367 139.569L171.01 140.414C170.933 140.592 171.153 140.729 171.29 140.586L171.938 139.92C172.015 139.843 172.14 139.843 172.199 139.92L172.728 140.586C172.841 140.729 173.085 140.598 173.037 140.414L172.829 139.569C172.806 139.468 172.877 139.361 172.978 139.343L173.864 139.165C174.054 139.129 174.078 138.861 173.893 138.82Z" fill="#263238"/>
<path d="M179.518 138.82L178.662 138.641C178.561 138.617 178.507 138.516 178.549 138.415L178.905 137.57C178.983 137.392 178.763 137.255 178.626 137.398L177.978 138.064C177.901 138.142 177.776 138.142 177.716 138.064L177.187 137.398C177.074 137.255 176.831 137.386 176.878 137.57L177.086 138.415C177.11 138.516 177.039 138.623 176.938 138.641L176.052 138.82C175.862 138.855 175.838 139.123 176.022 139.165L176.878 139.343C176.979 139.367 177.033 139.468 176.991 139.569L176.634 140.414C176.557 140.592 176.777 140.729 176.914 140.586L177.562 139.92C177.639 139.843 177.764 139.843 177.823 139.92L178.352 140.586C178.465 140.729 178.709 140.598 178.662 140.414L178.454 139.569C178.43 139.468 178.501 139.361 178.602 139.343L179.488 139.165C179.678 139.129 179.702 138.861 179.518 138.82Z" fill="#263238"/>
<path d="M185.141 138.82L184.285 138.641C184.184 138.617 184.13 138.516 184.172 138.415L184.529 137.57C184.606 137.392 184.386 137.255 184.249 137.398L183.601 138.064C183.524 138.142 183.399 138.142 183.34 138.064L182.811 137.398C182.698 137.255 182.454 137.386 182.501 137.57L182.71 138.415C182.733 138.516 182.662 138.623 182.561 138.641L181.675 138.82C181.485 138.855 181.461 139.123 181.645 139.165L182.501 139.343C182.603 139.367 182.656 139.468 182.614 139.569L182.258 140.414C182.18 140.592 182.4 140.729 182.537 140.586L183.185 139.92C183.262 139.843 183.387 139.843 183.447 139.92L183.976 140.586C184.089 140.729 184.332 140.598 184.285 140.414L184.077 139.569C184.053 139.468 184.124 139.361 184.225 139.343L185.111 139.165C185.301 139.129 185.325 138.861 185.141 138.82Z" fill="#263238"/>
<path d="M171.581 126.5H161.017C160.363 126.5 159.781 127.036 159.727 127.69C159.668 128.345 160.155 128.88 160.809 128.88H171.373C172.027 128.88 172.609 128.345 172.663 127.69C172.722 127.036 172.235 126.5 171.581 126.5Z" fill="#263238"/>
<path d="M182.306 126.5H176.177C175.523 126.5 174.94 127.036 174.887 127.69C174.827 128.344 175.315 128.88 175.969 128.88H182.098C182.752 128.88 183.334 128.344 183.388 127.69C183.447 127.036 182.96 126.5 182.306 126.5Z" fill="#263238"/>
<path d="M190.396 180.424C186.413 182.018 182.923 184.338 180.534 186.973C179.131 185.777 177.139 184.951 174.755 184.57L174.476 184.528L174.351 185.932L174.506 185.992C176.86 186.884 178.78 188.466 180.052 190.566L180.254 190.893L180.474 190.542C182.923 186.616 186.496 183.333 190.533 181.286L190.669 181.215L190.753 180.281L190.402 180.424H190.396Z" fill="#263238"/>
<path opacity="0.2" d="M137.271 63.304C136.528 64.6126 136.041 66.07 135.904 67.6166L127.052 168.872H154.446L159.95 147.76L158.137 126.649L163.642 105.538L161.829 84.427L167.334 63.3159H137.277L137.271 63.304Z" fill="black"/>
<path d="M159.449 78.4666L164.954 57.3555H95.6795L90.1806 78.4666L91.9878 99.5837L86.4889 120.695L88.2961 141.806L82.7972 162.923H152.066L157.571 141.806L155.757 120.695L161.262 99.5837L159.449 78.4666Z" fill="#00337C"/>
<path opacity="0.7" d="M159.449 78.4666L164.954 57.3555H95.6795L90.1806 78.4666L91.9878 99.5837L86.4889 120.695L88.2961 141.806L82.7972 162.923H152.066L157.571 141.806L155.757 120.695L161.262 99.5837L159.449 78.4666Z" fill="white"/>
<path opacity="0.5" d="M159.449 78.4666H90.1804L95.6793 57.3555H164.954L159.449 78.4666Z" fill="white"/>
<path opacity="0.5" d="M155.757 120.695H86.4888L91.9877 99.5835H161.262L155.757 120.695Z" fill="white"/>
<path opacity="0.5" d="M152.066 162.923H82.7971L88.296 141.806H157.571L152.066 162.923Z" fill="white"/>
<path opacity="0.2" d="M150.183 87.294C149.588 87.4784 148.827 87.5914 147.995 87.5914C146.771 87.5914 145.7 87.3475 145.088 86.9846C144.922 86.8835 144.737 86.8359 144.553 86.8359C144.381 86.8359 144.214 86.8835 144.054 86.9728C144.042 86.9787 144.03 86.9787 144.018 86.9906C144.018 86.9906 144.006 86.9965 143.994 87.0025C143.768 87.1334 143.483 87.2523 143.15 87.3416C142.579 87.5022 141.872 87.5973 141.111 87.5973C140.903 87.5973 140.701 87.5914 140.505 87.5795C139.91 87.5379 139.369 87.4427 138.923 87.2999C138.846 87.2761 138.769 87.2583 138.692 87.2583C138.151 87.2226 137.669 87.639 137.669 88.21V88.8525H110.745C108.659 88.8525 106.97 90.5418 106.97 92.6298V96.4368C106.97 98.5247 108.659 100.214 110.745 100.214H141.379C141.444 100.214 141.509 100.208 141.581 100.202C141.914 100.476 142.252 100.749 142.621 101.023C143.055 101.356 143.519 101.689 144 102.04C144.333 102.284 144.797 102.284 145.13 102.04C148.982 99.2445 151.455 97.3172 151.455 92.0171V88.21C151.455 87.5557 150.819 87.1096 150.201 87.3059L150.183 87.294Z" fill="black"/>
<path d="M140.778 86.7471H110.151C108.066 86.7471 106.376 88.4382 106.376 90.5243V94.3254C106.376 96.4116 108.066 98.1027 110.151 98.1027H140.778C142.863 98.1027 144.553 96.4116 144.553 94.3254V90.5243C144.553 88.4382 142.863 86.7471 140.778 86.7471Z" fill="#00337C"/>
<path d="M147.406 85.4916C146.181 85.4916 145.111 85.2477 144.499 84.8848C144.166 84.6826 143.762 84.6826 143.429 84.8848C142.817 85.2477 141.741 85.4916 140.522 85.4916C139.69 85.4916 138.929 85.3786 138.334 85.1942C137.71 84.9979 137.08 85.45 137.08 86.0983V89.9054C137.08 95.2054 139.553 97.1328 143.405 99.9285C143.738 100.172 144.202 100.172 144.535 99.9285C148.387 97.1328 150.86 95.2054 150.86 89.9054V86.0983C150.86 85.444 150.224 84.9979 149.606 85.1942C149.011 85.3786 148.25 85.4916 147.418 85.4916H147.406Z" fill="#00337C"/>
<path opacity="0.3" d="M147.406 85.4916C146.181 85.4916 145.111 85.2477 144.499 84.8848C144.166 84.6826 143.762 84.6826 143.429 84.8848C142.817 85.2477 141.741 85.4916 140.522 85.4916C139.69 85.4916 138.929 85.3786 138.334 85.1942C137.71 84.9979 137.08 85.45 137.08 86.0983V89.9054C137.08 95.2054 139.553 97.1328 143.405 99.9285C143.738 100.172 144.202 100.172 144.535 99.9285C148.387 97.1328 150.86 95.2054 150.86 89.9054V86.0983C150.86 85.444 150.224 84.9979 149.606 85.1942C149.011 85.3786 148.25 85.4916 147.418 85.4916H147.406Z" fill="white"/>
<path opacity="0.2" d="M143.429 84.8846C142.817 85.2474 141.741 85.4913 140.522 85.4913C139.69 85.4913 138.929 85.3783 138.334 85.1939C137.71 84.9976 137.08 85.4497 137.08 86.098V89.9051C137.08 95.2052 139.553 97.1325 143.405 99.9282C143.572 100.047 143.774 100.113 143.97 100.113V84.7358C143.786 84.7358 143.601 84.7834 143.435 84.8846H143.429Z" fill="white"/>
<path d="M149.487 88.8707C146.996 89.8997 144.868 91.4047 143.471 93.1119C142.496 92.3386 141.158 91.8033 139.589 91.5594L139.405 91.5296V92.4397L139.512 92.4754C141.087 93.0524 142.419 94.0756 143.364 95.4378L143.513 95.6519L143.637 95.4199C144.999 92.8799 147.127 90.7504 149.624 89.4239L149.707 89.3763V88.7695L149.487 88.8588V88.8707Z" fill="#263238"/>
<path d="M163.73 63.2921H161.103C159.646 63.2921 158.564 62.1083 158.695 60.651L158.927 58.0217C159.052 56.5644 160.342 55.3806 161.798 55.3806H164.426C165.882 55.3806 166.964 56.5644 166.834 58.0217L166.602 60.651C166.477 62.1083 165.187 63.2921 163.73 63.2921Z" fill="#00337C"/>
<path d="M164.824 58.0157L164.253 57.3911L162.815 58.7117L161.614 57.3911L160.93 58.0157L162.137 59.3363L160.704 60.6568L161.275 61.2874L162.708 59.9668L163.914 61.2874L164.592 60.6568L163.385 59.3363L164.824 58.0157Z" fill="white"/>
<path d="M105.012 85.9797C106.534 87.6394 107.99 89.3525 109.429 91.0895C110.868 92.8205 112.271 94.5812 113.656 96.3598C113.715 96.4372 113.691 96.4074 113.709 96.4312C113.715 96.4431 113.715 96.4609 113.727 96.4669C113.745 96.4847 113.751 96.5145 113.769 96.5264C113.798 96.568 113.834 96.6037 113.876 96.6454C113.959 96.7227 114.078 96.7762 114.203 96.8C114.268 96.8119 114.333 96.8179 114.405 96.8119C114.44 96.8119 114.476 96.806 114.512 96.806C114.53 96.806 114.547 96.7941 114.565 96.7941C114.595 96.7822 114.577 96.806 114.66 96.7584L116.147 95.9494C118.144 94.8906 120.159 93.8555 122.24 92.9276L123.982 95.0869C122.305 96.6335 120.558 98.5608 118.792 99.9765L117.46 101.023C117.425 101.053 117.282 101.148 117.193 101.208C117.092 101.273 116.991 101.345 116.884 101.404C116.67 101.523 116.45 101.642 116.218 101.731C115.76 101.928 115.273 102.053 114.779 102.13C113.787 102.279 112.758 102.177 111.795 101.832C111.314 101.66 110.85 101.428 110.428 101.136C110.214 100.994 110.012 100.833 109.815 100.667C109.714 100.583 109.625 100.494 109.536 100.405L109.298 100.167C107.723 98.5548 106.171 96.9249 104.649 95.2594C103.128 93.5997 101.624 91.9223 100.185 90.1913L105.006 85.9797H105.012Z" fill="#B55B52"/>
<path d="M121.431 94.2423L122.816 89.7869L126.466 91.6071C126.466 91.6071 125.937 94.855 123.28 95.4201L121.431 94.2423Z" fill="#B55B52"/>
<path d="M124.278 88.5554L127.572 89.4596L126.466 91.607L122.816 89.7868L124.278 88.5554Z" fill="#B55B52"/>
<path d="M85.8201 87.1931C85.4218 89.0847 84.9403 90.9585 84.429 92.8204C83.9237 94.6882 83.3709 96.5441 82.7942 98.3882L82.5802 99.0841L82.4732 99.4291C82.4494 99.5065 82.4375 99.5243 82.4138 99.5719C82.3484 99.7444 82.3068 99.9348 82.3008 100.137C82.2889 100.536 82.384 100.976 82.6456 101.356C82.6694 101.416 82.8715 101.636 83.032 101.809L83.5254 102.344L84.5004 103.432C85.1424 104.17 85.7785 104.908 86.3849 105.681L84.3161 108.078C83.46 107.59 82.6397 107.067 81.8193 106.538L80.6006 105.735L80.0002 105.324C79.7981 105.181 79.6316 105.086 79.3046 104.813C78.1751 103.855 77.331 102.493 77.0218 100.976C76.8613 100.22 76.8257 99.4351 76.9148 98.6558C76.9386 98.4714 76.9743 98.2513 77.004 98.0907L77.0694 97.7338L77.1942 97.02C77.5272 95.1106 77.8838 93.207 78.2821 91.3214C78.6804 89.4298 79.1025 87.5441 79.6138 85.6763L85.832 87.1812L85.8201 87.1931Z" fill="#B55B52"/>
<path d="M84.3572 105.521L86.8124 104.265L87.8943 108.435C87.8943 108.435 85.9266 109.191 84.4047 108.221L84.3631 105.521H84.3572Z" fill="#B55B52"/>
<path d="M90.1958 102.933L90.3088 106.758L87.5682 108.554L86.6171 104.349L90.1958 102.933Z" fill="#B55B52"/>
<path d="M98.2153 67.5276C98.2748 67.825 98.4769 68.0272 98.6731 67.9916C98.8633 67.9499 98.9763 67.6822 98.9109 67.3848C98.8455 67.0874 98.6434 66.8851 98.4531 66.9208C98.2629 66.9625 98.1559 67.2301 98.2153 67.5276Z" fill="#263238"/>
<path d="M98.4539 68.033C98.4539 68.033 99.4705 69.5974 100.374 70.2696C99.952 70.8644 99.0187 70.8228 99.0187 70.8228L98.4539 68.0389V68.033Z" fill="#A02724"/>
<path d="M96.8065 66.106C96.7649 66.106 96.7233 66.0881 96.6876 66.0584C96.6163 65.993 96.6103 65.8799 96.6757 65.8086C97.3416 65.0888 98.1441 65.2197 98.1798 65.2256C98.2749 65.2435 98.3403 65.3327 98.3224 65.4279C98.3046 65.523 98.2154 65.5885 98.1203 65.5706C98.1203 65.5706 97.4664 65.4754 96.9373 66.0465C96.9016 66.0822 96.8541 66.106 96.8065 66.106Z" fill="#263238"/>
<path d="M89.6424 71.6737C90.2963 74.404 90.9503 79.4007 88.614 81.221C88.614 81.221 89.5294 83.987 95.7477 83.987C102.584 83.987 99.0173 82.2025 99.0173 82.2025C95.284 81.4768 95.3851 78.2348 96.033 76.1112L89.6483 71.6677L89.6424 71.6737Z" fill="#B55B52"/>
<path d="M87.8833 81.7265C87.4731 80.971 87.0273 80.1025 87.9547 79.8289C88.9772 79.5315 95.5343 78.9783 97.4604 79.5374C96.8659 80.5903 97.8706 81.8871 97.8706 81.8871L87.8833 81.7265Z" fill="#263238"/>
<path d="M93.3173 209.369H97.6035L98.0315 200.732H93.7394L93.3173 209.369Z" fill="#B55B52"/>
<path d="M66.0964 208.179L70.442 208.405L73.0815 199.899L68.7359 199.667L66.0964 208.179Z" fill="#B55B52"/>
<path d="M70.3106 208.06L66.2206 207.174C66.072 207.144 65.9174 207.215 65.858 207.358L64.4372 210.439C64.2886 210.761 64.4847 211.135 64.8295 211.201C66.2622 211.486 66.9756 211.552 68.7769 211.944C69.8826 212.182 72.3853 212.795 73.9132 213.122C75.4112 213.443 75.9701 211.986 75.3756 211.712C72.7004 210.487 71.5828 209.416 70.8635 208.411C70.7327 208.232 70.5365 208.108 70.3225 208.06H70.3106Z" fill="#263238"/>
<path d="M97.3779 208.935H93.3058C93.1512 208.935 93.0204 209.042 92.9907 209.19L92.2535 212.504C92.1763 212.849 92.4378 213.176 92.7886 213.17C94.2569 213.146 96.3792 213.057 98.2221 213.057C100.38 213.057 102.247 213.176 104.773 213.176C106.301 213.176 106.729 211.629 106.087 211.486C103.168 210.85 100.79 210.779 98.2697 209.226C97.9962 209.06 97.693 208.935 97.372 208.935H97.3779Z" fill="#263238"/>
<path d="M80.8454 82.4823C77.6054 84.0229 76.7316 93.3561 76.7316 93.3561L84.7392 97.056C84.7392 97.056 86.7247 94.1234 86.8793 89.5193C87.0398 84.6951 84.1566 80.9 80.8513 82.4763L80.8454 82.4823Z" fill="#263238"/>
<path opacity="0.4" d="M85.19 88.24C83.7454 90.4826 83.8822 93.9624 84.3815 96.895L84.7382 97.0616C84.7382 97.0616 86.7297 94.129 86.8783 89.5249C86.8843 89.2393 86.8843 88.9538 86.8783 88.6742L85.19 88.24Z" fill="black"/>
<path d="M103.191 82.2559C103.191 82.2559 107.156 86.7411 103.411 114.491H83.4724C83.3357 111.427 85.2559 96.4906 82.3073 82.0596C82.3073 82.0596 85.7255 81.3755 88.9832 81.2149C91.5336 81.09 95.2193 81.0127 97.4605 81.2149C100.415 81.4826 103.191 82.25 103.191 82.25V82.2559Z" fill="#00337C"/>
<path opacity="0.6" d="M103.191 82.2559C103.191 82.2559 107.156 86.7411 103.411 114.491H83.4724C83.3357 111.427 85.2559 96.4906 82.3073 82.0596C82.3073 82.0596 85.7255 81.3755 88.9832 81.2149C91.5336 81.09 95.2193 81.0127 97.4605 81.2149C100.415 81.4826 103.191 82.25 103.191 82.25V82.2559Z" fill="#FAFAFA"/>
<path opacity="0.2" d="M104.933 90.7385L104.856 90.6731L100.891 88.5554C100.487 94.6645 103.215 98.4953 104.838 100.167C105.064 96.2527 105.058 93.1655 104.927 90.7385H104.933Z" fill="black"/>
<path opacity="0.2" d="M98.031 200.732L97.8111 205.181H93.5189L93.7389 200.732H98.031Z" fill="black"/>
<path opacity="0.2" d="M68.7348 199.667L73.0805 199.899L71.7191 204.283L67.3735 204.057L68.7348 199.667Z" fill="black"/>
<path d="M88.264 68.9015C89.2211 72.4765 89.6016 74.618 91.8071 76.1051C95.1243 78.3417 99.2559 75.772 99.3807 71.9828C99.4996 68.5743 97.9124 63.298 94.078 62.5783C90.303 61.8704 87.3069 65.3265 88.264 68.9015Z" fill="#B55B52"/>
<path d="M96.3423 114.497C96.3423 114.497 92.1096 143.002 89.7911 153.679C87.2468 165.374 73.6094 204.063 73.6094 204.063L66.9394 202.618C66.9394 202.618 75.488 171.091 77.6222 154.738C78.4544 148.361 79.4591 138.077 80.7313 129.499C81.9619 121.195 83.4778 114.497 83.4778 114.497H96.3423Z" fill="#263238"/>
<path d="M75.209 201.826L73.9665 204.242L66.4583 202.618L67.0884 200.357L75.209 201.826Z" fill="#00337C"/>
<path opacity="0.6" d="M75.209 201.826L73.9665 204.242L66.4583 202.618L67.0884 200.357L75.209 201.826Z" fill="white"/>
<path opacity="0.6" d="M93.6681 124.651C88.7755 125.608 89.2927 143.864 89.8813 153.251C91.2902 146.612 93.359 133.847 94.7679 124.782C94.4409 124.621 94.0783 124.567 93.6681 124.651Z" fill="black"/>
<path d="M103.411 114.497C103.411 114.497 105.402 142.383 104.992 153.757C104.57 165.588 98.9642 204.325 98.9642 204.325H92.6509C92.6509 204.325 92.419 166.278 92.1396 154.661C91.8305 141.997 90.3027 114.497 90.3027 114.497H103.405H103.411Z" fill="#263238"/>
<path d="M100.183 201.802L99.8267 204.426H92.1461L91.938 202.082L100.183 201.802Z" fill="#00337C"/>
<path opacity="0.6" d="M100.183 201.802L99.8267 204.426H92.1461L91.938 202.082L100.183 201.802Z" fill="white"/>
<path d="M100.868 87.4786C100.868 94.9618 104.851 98.0431 104.851 98.0431L111.318 91.7139C111.318 91.7139 109.119 87.9248 106.093 84.439C102.354 80.1382 100.868 82.6604 100.868 87.4786Z" fill="#263238"/>
<path opacity="0.2" d="M99.1546 73.3391C98.9882 73.7971 98.5601 74.5764 97.4782 74.8857C95.8969 75.3378 95.879 76.6762 95.879 76.6762L95.8969 76.7C97.4009 76.2003 98.6552 74.9571 99.1546 73.3391Z" fill="black"/>
<path d="M97.4783 61.7932C98.8099 60.1098 96.759 60.0325 96.759 60.0325C97.294 58.0278 94.8923 59.1045 94.8923 59.1045C93.4537 57.1177 92.6392 59.5328 92.6392 59.5328C91.1471 57.8494 90.8736 60.5976 90.8736 60.5976C89.3756 58.4621 88.6146 61.5434 88.6146 61.5434C87.2354 59.3246 86.3913 62.2156 86.3913 62.2156C83.5437 61.1984 84.8991 64.1548 84.8991 64.1548C82.4677 64.2202 84.4176 66.1059 84.4176 66.1059C81.5047 66.1118 84.0728 67.7833 84.0728 67.7833C81.7603 69.3002 84.6613 69.7106 84.6613 69.7106C82.7768 72.6611 86.0168 71.5666 86.0168 71.5666C84.703 74.4873 87.6159 73.2024 87.6159 73.2024C87.4257 76.022 89.0545 75.2546 89.8393 74.7311C89.9879 75.2962 90.2732 75.903 90.7964 75.9684C91.8129 76.0993 92.0091 74.1839 92.0091 74.1839C92.0091 74.1839 92.9543 74.9155 93.739 74.517C94.5297 74.1184 94.2324 73.1132 94.2324 73.1132C94.2324 73.1132 94.8388 73.5652 95.3917 73.131C95.7305 72.8693 95.7305 70.9717 95.3025 70.3055L96.8481 69.6987C96.8481 69.6987 97.9955 69.5381 97.4842 68.0213C96.973 66.5044 97.407 65.3088 97.407 65.3088C99.1547 64.4879 97.722 63.5064 97.722 63.5064C99.7433 62.1977 97.4842 61.7813 97.4842 61.7813L97.4783 61.7932Z" fill="#263238"/>
<path d="M94.3456 69.0504C94.5893 69.9902 95.2076 70.7933 95.8496 71.2751C96.8186 71.9949 97.5439 71.287 97.4725 70.1865C97.4131 69.1991 96.8305 67.6287 95.7604 67.3372C94.7082 67.0457 94.0661 67.9737 94.3396 69.0504H94.3456Z" fill="#B55B52"/>
</svg>
