<svg width="180" height="133" viewBox="0 0 180 133" fill="none" xmlns="http://www.w3.org/2000/svg">
<g clip-path="url(#clip0_212_2369)">
<path d="M180 116.88H0V116.97H180V116.88Z" fill="#EBEBEB"/>
<path d="M161.964 122.624H150.041V122.713H161.964V122.624Z" fill="#EBEBEB"/>
<path d="M119.239 123.595H116.111V123.684H119.239V123.595Z" fill="#EBEBEB"/>
<path d="M149.681 119.311H142.772V119.401H149.681V119.311Z" fill="#EBEBEB"/>
<path d="M34.434 119.911H18.8856V120H34.434V119.911Z" fill="#EBEBEB"/>
<path d="M39.9204 119.911H37.6416V120H39.9204V119.911Z" fill="#EBEBEB"/>
<path d="M81.054 121.417H47.3292V121.506H81.054V121.417Z" fill="#EBEBEB"/>
<path d="M85.3235 100.961H15.8076C14.6736 100.961 13.752 100.047 13.752 98.9228V2.03814C13.752 0.91377 14.6736 0 15.8076 0H85.3235C86.4576 0 87.3792 0.91377 87.3792 2.03814V98.9228C87.3792 100.047 86.4576 100.961 85.3235 100.961ZM15.8076 0.0892354C14.724 0.0892354 13.842 0.963742 13.842 2.03814V98.9228C13.842 99.9972 14.724 100.872 15.8076 100.872H85.3235C86.4072 100.872 87.2892 99.9972 87.2892 98.9228V2.03814C87.2892 0.963742 86.4072 0.0892354 85.3235 0.0892354H15.8076Z" fill="#EBEBEB"/>
<path d="M163.192 100.961H93.6756C92.5416 100.961 91.62 100.047 91.62 98.9228V2.03814C91.62 0.91377 92.5416 0 93.6756 0H163.192C164.326 0 165.247 0.91377 165.247 2.03814V98.9228C165.247 100.047 164.326 100.961 163.192 100.961ZM93.6756 0.0892354C92.592 0.0892354 91.71 0.963742 91.71 2.03814V98.9228C91.71 99.9972 92.592 100.872 93.6756 100.872H163.192C164.275 100.872 165.157 99.9972 165.157 98.9228V2.03814C165.157 0.963742 164.275 0.0892354 163.192 0.0892354H93.6756Z" fill="#EBEBEB"/>
<path d="M27.2375 84.1096H52.8695C55.3571 84.1096 57.3767 86.1121 57.3767 88.5785V111.409C57.3767 113.875 55.3571 115.877 52.8695 115.877H27.2375V84.1096Z" fill="#F0F0F0"/>
<path d="M27.4499 84.1096H27.0251C24.5359 84.1096 22.5179 86.1104 22.5179 88.5785V111.409C22.5179 113.877 24.5359 115.877 27.0251 115.877H27.4499C29.9392 115.877 31.9571 113.877 31.9571 111.409V88.5785C31.9571 86.1104 29.9392 84.1096 27.4499 84.1096Z" fill="#F5F5F5"/>
<path d="M30.6684 115.874H64.1232V95.8245H30.6684V115.874Z" fill="#F0F0F0"/>
<path d="M27.9215 116.881H88.2179C88.7291 116.881 89.1431 116.47 89.1431 115.963V115.878H52.8839L26.9963 115.963C26.9963 116.47 27.4103 116.881 27.9215 116.881Z" fill="#E0E0E0"/>
<path d="M54.3311 70.9279H85.4604C88.9307 70.9279 91.5012 73.7191 91.1952 77.1601L89.1431 100.358H45.4427L47.4947 77.1601C47.8007 73.7191 50.8607 70.9279 54.3311 70.9279Z" fill="#E0E0E0"/>
<path d="M49.4135 70.9279H81.1475C84.4523 70.9279 86.8967 73.5835 86.6051 76.8602L84.5279 100.358H40.8275L42.9047 76.8602C43.1927 73.5835 46.1087 70.9279 49.4135 70.9279Z" fill="#F5F5F5"/>
<path d="M33.3503 93.997H59.8499C61.4159 93.997 62.6867 95.257 62.6867 96.8097V99.3475C62.6867 100.9 61.4159 102.16 59.8499 102.16H33.3503C31.0751 102.16 29.2319 100.333 29.2319 98.0768C29.2319 95.821 31.0751 93.9934 33.3503 93.9934V93.997Z" fill="#E0E0E0"/>
<path d="M64.2708 84.1096H89.9028C92.3904 84.1096 94.41 86.1121 94.41 88.5785V111.409C94.41 113.875 92.3904 115.877 89.9028 115.877H64.2708V84.1096Z" fill="#F0F0F0"/>
<path d="M64.4831 84.1096H64.0583C61.5691 84.1096 59.5511 86.1104 59.5511 88.5785V111.409C59.5511 113.877 61.5691 115.877 64.0583 115.877H64.4831C66.9724 115.877 68.9903 113.877 68.9903 111.409V88.5785C68.9903 86.1104 66.9724 84.1096 64.4831 84.1096Z" fill="#F5F5F5"/>
<path d="M135.004 66.6445H110.362V116.877H135.004V66.6445Z" fill="#F0F0F0"/>
<path d="M114.044 112.968V70.5602H113.476V112.968H114.044Z" fill="#E6E6E6"/>
<path d="M131.371 70.5602H113.479V71.2741H131.371V70.5602Z" fill="#E6E6E6"/>
<path d="M160.214 66.6445H135.572V116.877H160.214V66.6445Z" fill="#F0F0F0"/>
<path d="M160.218 116.88H163.48V66.648H160.218V116.88Z" fill="#E0E0E0"/>
<path d="M139.259 112.965V70.5566H138.69V112.965H139.259Z" fill="#E6E6E6"/>
<path d="M135.572 116.881V67.2193H135.004V116.881H135.572Z" fill="#E6E6E6"/>
<path d="M156.582 70.5602H138.69V71.2741H156.582V70.5602Z" fill="#E6E6E6"/>
<path d="M133.924 77.7598H132.7V88.8606H133.924V77.7598Z" fill="#E0E0E0"/>
<path d="M137.876 77.7598H136.652V88.8606H137.876V77.7598Z" fill="#E0E0E0"/>
<path d="M153.4 14.2669H27.7523V58.7026H153.4V14.2669Z" fill="#E0E0E0"/>
<path d="M152.248 14.267H26.6003V58.7026H152.248V14.267Z" fill="#F0F0F0"/>
<path d="M148.478 54.9654V18.0041L30.3695 18.0041V54.9654L148.478 54.9654Z" fill="#FAFAFA"/>
<path d="M49.5431 54.9618L57.3695 18.0041H74.6459L66.8195 54.9618H49.5431Z" fill="white"/>
<path d="M74.1095 54.9618L81.9359 18.0041H90.5759L82.7495 54.9618H74.1095Z" fill="white"/>
<path d="M126.853 54.9618L134.683 18.0041H143.32L135.493 54.9618H126.853Z" fill="white"/>
<path d="M90 133C128.55 133 159.8 131.191 159.8 128.959C159.8 126.728 128.55 124.919 90 124.919C51.4503 124.919 20.1996 126.728 20.1996 128.959C20.1996 131.191 51.4503 133 90 133Z" fill="#F5F5F5"/>
<path d="M59.7636 21.6629C60.6708 19.5997 52.6356 17.7258 50.2056 24.0794C48.0024 29.8404 44.3448 31.3074 46.0656 35.2945C47.9268 39.6135 58.4604 40.131 63.0324 35.3444C66.7404 31.4645 62.712 29.8333 63.234 26.1818C63.7524 22.5338 62.6616 21.3416 59.7672 21.6593L59.7636 21.6629Z" fill="#263038"/>
<path d="M45.1224 34.0167C44.7048 31.7679 45.5472 30.8399 46.6092 29.6656C47.5812 28.5947 48.7908 27.2598 49.4532 24.3971C49.9896 22.0734 51.5916 20.5528 53.964 20.1174C56.34 19.6819 58.8564 20.4493 59.5188 21.4309C59.7384 21.7522 59.7492 22.0948 59.5548 22.3982L59.2524 22.2055C59.3676 22.0234 59.3568 21.8378 59.22 21.6308C58.6296 20.7599 56.232 20.0638 54.0288 20.4707C52.4556 20.7599 50.4468 21.6915 49.8024 24.4792C49.1184 27.4347 47.8764 28.8053 46.8756 29.9083C45.8388 31.0541 45.0864 31.8786 45.4752 33.956L45.1224 34.0202V34.0167Z" fill="#263038"/>
<path d="M40.1724 32.3105L39.9492 31.6002C39.798 31.1147 39.5172 30.6793 39.1428 30.333L38.4336 29.6834C37.9656 29.2515 37.2528 29.2158 36.7416 29.5942L35.9676 30.1653C35.3772 30.6043 35.2584 31.436 35.7084 32.0178L36.2052 32.6603C36.2052 32.6603 37.368 34.6128 39.0564 35.2945L39.4452 34.9661C39.4452 34.9661 39.4596 34.9554 39.4632 34.9483C40.2156 34.3022 40.4676 33.2492 40.1688 32.3069L40.1724 32.3105Z" fill="#FFC6BD"/>
<path d="M54.1657 44.6999L53.9353 44.8748L53.7481 45.0104L53.3844 45.2603C53.1432 45.4173 52.9021 45.5672 52.6573 45.7064C52.1677 45.9884 51.6637 46.2383 51.1453 46.4667C50.1049 46.9129 48.9925 47.2627 47.8153 47.4483C46.6417 47.6482 45.3925 47.6625 44.1541 47.4697C43.5349 47.3698 42.9229 47.2199 42.3325 47.0021C42.1849 46.9522 42.0373 46.895 41.8933 46.8344L41.6773 46.7451L41.5693 46.6987L41.4505 46.6452L41.3029 46.5738C40.9249 46.381 40.6441 46.1597 40.4389 45.9706C40.2229 45.7707 40.0717 45.5922 39.9313 45.4209C39.4129 44.7427 39.1825 44.1894 38.9521 43.654C38.7361 43.1222 38.5705 42.6189 38.4229 42.1227C38.1457 41.1269 37.9333 40.1667 37.7713 39.2065C37.4437 37.2826 37.2565 35.4015 37.2205 33.4598C37.2061 32.6638 37.8469 32.0034 38.6497 31.9892C39.2869 31.9785 39.8377 32.3747 40.0465 32.9386L40.0609 32.9779C40.6873 34.6876 41.2885 36.4367 41.9257 38.1036C42.2497 38.9317 42.5701 39.7562 42.9301 40.5058C43.1029 40.8806 43.2829 41.2411 43.4629 41.5481C43.6357 41.8515 43.8517 42.1227 43.9201 42.1656C43.9309 42.1691 43.9345 42.1656 43.8985 42.1192C43.8661 42.087 43.7797 42.0014 43.6105 41.9121L43.5421 41.8764C43.5241 41.8657 43.4773 41.8515 43.5025 41.8586L43.5601 41.8729L43.6753 41.9014C43.7509 41.9228 43.8265 41.9443 43.9021 41.955C44.2045 42.0264 44.5141 42.0406 44.8237 42.0656C45.4429 42.0977 46.0873 42.0192 46.7497 41.8657C47.4085 41.7051 48.0889 41.4731 48.7585 41.159C49.0933 41.0091 49.4245 40.8342 49.7485 40.6593C49.9105 40.57 50.0688 40.4772 50.22 40.3844L50.5944 40.1524L50.8753 39.9811C52.2361 39.1423 54.0217 39.5599 54.8677 40.9091C55.6597 42.1727 55.3284 43.8182 54.1693 44.707L54.1657 44.6999Z" fill="#FFC6BD"/>
<path d="M60.4944 127.4C62.7732 126.657 64.6956 125.13 64.3068 122.449C64.1412 121.3 67.8564 120.85 67.8564 120.85C67.4316 124.501 67.896 125.115 68.3388 125.958C68.7852 126.804 68.7564 127.789 67.986 127.882C67.0644 127.989 66.8592 127.889 65.7144 128.039C64.3788 128.214 63.5112 128.91 60.8328 128.91C59.3676 128.91 59.76 127.639 60.4944 127.4Z" fill="#00337C"/>
<path d="M67.41 88.4002C67.6728 70.1105 65.9628 60.1411 65.9628 60.1411L52.3152 60.8157C52.3152 60.8157 54.3348 77.5492 57.9168 89.8743C58.8744 96.4885 61.0308 107.675 62.5248 115.189C64.8828 114.953 67.248 114.55 69.066 113.961C69.5952 107.361 69.6924 97.8127 67.41 88.4002Z" fill="#00337C"/>
<path d="M67.7052 122.642C67.7052 122.642 68.238 119.186 68.598 113.961C67.0428 114.55 65.0196 114.953 63 115.189C63.7776 119.754 64.332 122.656 64.332 122.656C65.0088 122.984 66.7296 123.099 67.7052 122.642Z" fill="#FFC6BD"/>
<path d="M61.7904 113.001C61.9128 113.629 62.2404 115.203 62.568 115.756C62.6076 115.821 62.6724 115.867 62.7516 115.874C65.2968 116.192 67.8384 115.685 68.8896 115.228C68.9472 115.203 68.994 115.157 69.0156 115.096C69.3 114.343 69.408 112.747 69.4404 112.076C69.4476 111.919 69.3072 111.798 69.1524 111.83C68.3172 111.994 65.7756 112.447 62.0136 112.715C61.8696 112.726 61.7616 112.858 61.7904 112.997V113.001Z" fill="#263038"/>
<path d="M52.5025 39.3101C50.4793 39.6813 47.3941 41.3625 47.3941 41.3625C47.3941 41.3625 45.7705 45.2174 47.7145 47.9945C49.6297 48.4406 50.6053 48.0765 50.6053 48.0765L52.5025 39.3101Z" fill="#263038"/>
<path opacity="0.2" d="M47.7145 47.9945C49.6297 48.4407 50.6053 48.0766 50.6053 48.0766L50.5369 42.8724C49.2265 44.6107 48.1429 46.3276 47.7145 47.9909V47.9945Z" fill="black"/>
<path opacity="0.2" d="M67.3381 77.6099C65.8117 73.9084 64.1701 70.8601 63.5401 68.076C62.4673 75.6467 63.3097 82.6107 67.4173 87.6007C67.4641 83.9171 67.4245 80.5832 67.3381 77.6099Z" fill="black"/>
<path d="M88.1893 106.636L82.7425 110.477C78.2965 104.734 71.6293 95.9603 70.0165 92.141C65.9197 82.45 57.6829 61.0978 57.6829 61.0978L68.3749 58.6349C68.3749 58.6349 75.1213 64.8457 79.4737 88.2825C83.1277 93.4046 86.1949 100.957 88.1893 106.636Z" fill="#00337C"/>
<path d="M87.8868 124.84C89.244 122.21 89.262 119.311 87.7968 117.027C87.1668 116.049 90.3672 114.118 90.3672 114.118C91.4976 117.619 92.4192 117.823 93.204 118.362C94.014 118.919 94.068 120.075 93.4056 120.471C92.61 120.946 92.304 121.257 91.602 122.163C90.7812 123.223 90.3204 124.705 89.1432 125.622C88.3908 126.207 87.2856 125.99 87.8832 124.84H87.8868Z" fill="#00337C"/>
<path d="M90.9612 115.72C90.9612 115.72 90.0216 112.444 88.1748 107.536C87.0048 108.707 85.3272 109.899 83.5848 110.941C86.1876 114.782 88.092 117.541 88.092 117.541C89.2476 117.177 90.2628 116.534 90.9612 115.72Z" fill="#FFC6BD"/>
<path d="M81.5761 109.445C81.9469 109.967 82.9009 111.269 83.4301 111.637C83.4949 111.68 83.5741 111.694 83.6461 111.673C86.0977 110.923 88.2001 109.42 88.9705 108.574C89.0137 108.528 89.0353 108.467 89.0317 108.403C88.9777 107.6 88.4125 106.104 88.1605 105.48C88.1029 105.333 87.9229 105.28 87.7969 105.373C87.1057 105.862 84.9781 107.314 81.6625 109.096C81.5365 109.163 81.4933 109.328 81.5761 109.445Z" fill="#263038"/>
<path d="M49.4136 44.6499C49.9032 47.8052 48.0024 50.2574 50.922 51.7138C50.436 54.1124 51.156 58.9133 52.3152 60.8158C53.9352 61.6903 61.8804 60.3981 68.3712 58.6349C68.2776 55.8864 65.9952 50.4787 66.6288 41.4767C66.7764 39.3886 65.0664 37.636 62.9568 37.7109C62.3916 37.7324 61.7976 37.7645 61.1928 37.818C58.8348 38.025 56.9052 38.2107 54.8712 38.6782C54.198 38.8317 53.5032 39.0138 52.8408 39.1994C50.454 39.8669 49.0356 42.2191 49.4136 44.6499Z" fill="#263038"/>
<path d="M54.0036 42.2335C54.0036 42.2335 56.034 41.4946 57.1032 43.3079C58.8744 42.3192 61.3728 38.1394 61.1928 37.8217C58.2228 38.6284 54 42.2371 54 42.2371L54.0036 42.2335Z" fill="white"/>
<path d="M54.0036 42.2334C54.0036 42.2334 52.4592 42.0514 52.0236 43.4042C52.038 40.7271 53.8452 39.0459 54.6408 38.7318C54.3744 39.4278 54.0036 42.2334 54.0036 42.2334Z" fill="white"/>
<path d="M60.4153 30.7327C60.1885 32.8173 60.1525 36.1761 61.1965 37.818C61.1965 37.818 57.2545 40.5094 54.0037 42.2334C52.9849 39.8954 54.6409 38.7318 54.6409 38.7318C56.1853 38.1428 56.1709 36.1868 55.9621 34.6841L60.4117 30.7327H60.4153Z" fill="#FFC6BD"/>
<path opacity="0.2" d="M55.962 34.6841L58.4928 32.4354C58.5864 32.7745 58.5468 33.2706 58.4136 33.6954C58.0176 34.9304 56.9736 35.9227 56.0448 36.4617C56.0916 35.8691 56.0376 35.2445 55.962 34.6841Z" fill="black"/>
<path d="M61.2289 26.8528C60.8869 30.2402 60.8149 31.6822 59.0509 33.3599C56.3941 35.8834 52.3549 34.727 51.6853 31.3039C51.0841 28.2235 51.7429 23.2013 55.0837 21.977C58.3741 20.7705 61.5709 23.4654 61.2289 26.8528Z" fill="#FFC6BD"/>
<path d="M60.4657 29.3336C59.2345 28.2449 59.4469 26.3674 60.3469 25.4607C61.2469 24.5577 62.5141 26.4245 62.5141 26.4245L60.4693 29.33L60.4657 29.3336Z" fill="#263038"/>
<path d="M56.3076 27.7916C56.2968 28.0664 56.1384 28.2877 55.9584 28.2806C55.7748 28.2734 55.638 28.045 55.6488 27.7666C55.6596 27.4917 55.818 27.2704 55.998 27.2776C56.1816 27.2847 56.3184 27.5132 56.3076 27.7916Z" fill="#263038"/>
<path d="M52.8733 27.7059C52.8625 27.9807 52.7041 28.202 52.5241 28.1949C52.3405 28.1877 52.2037 27.9593 52.2145 27.6809C52.2253 27.406 52.3837 27.1847 52.5637 27.1919C52.7473 27.199 52.8841 27.4275 52.8733 27.7059Z" fill="#263038"/>
<path d="M52.6429 27.2132L51.9805 26.9955C51.9805 26.9955 52.3045 27.5273 52.6429 27.2132Z" fill="#263038"/>
<path d="M53.7192 27.8165C53.7192 27.8165 53.1972 28.9873 52.6536 29.5441C53.01 29.8975 53.64 29.769 53.64 29.769L53.7156 27.8201L53.7192 27.8165Z" fill="#ED8A7E"/>
<path d="M55.206 30.8505C55.062 30.8719 54.9036 30.879 54.738 30.8719C54.6912 30.8719 54.6588 30.8326 54.6588 30.7862C54.6588 30.7434 54.6984 30.7077 54.7452 30.7077C55.9692 30.7577 56.574 29.9296 56.5812 29.9224C56.6064 29.8867 56.6604 29.876 56.6964 29.9046C56.7324 29.9296 56.7432 29.9831 56.7144 30.0188C56.6928 30.0509 56.2032 30.7184 55.2096 30.8505H55.206Z" fill="#263038"/>
<path d="M61.7976 29.694C61.4736 30.3365 60.9264 30.7292 60.4152 30.8577C59.6484 31.0468 59.292 30.2116 59.5296 29.3763C59.742 28.6232 60.3972 27.6202 61.1568 27.8058C61.9056 27.9878 62.1684 28.9623 61.7976 29.6976V29.694Z" fill="#FFC6BD"/>
<path d="M59.4577 22.027C56.7433 23.7224 53.8489 24.5541 51.4873 24.8539C51.4657 22.416 56.2933 19.6783 59.4577 22.027Z" fill="#263038"/>
<path d="M57.6037 22.3268C57.0421 24.4684 62.6221 28.3841 61.5745 32.1712C63.4033 29.3443 62.0857 22.9943 62.0857 22.9943C62.0857 22.9943 57.3553 20.0352 57.6073 22.3268H57.6037Z" fill="#263038"/>
<path d="M57.024 25.9712C56.9808 25.9641 56.9412 25.9391 56.916 25.9034C56.5056 25.3037 55.9008 25.3073 55.8936 25.3073C55.8036 25.3073 55.728 25.2359 55.728 25.1467C55.728 25.0574 55.8 24.9825 55.89 24.9825C55.9224 24.9825 56.6784 24.9753 57.1896 25.7214C57.24 25.7963 57.222 25.8963 57.1464 25.9462C57.1104 25.9712 57.0672 25.9784 57.0276 25.9712H57.024Z" fill="#263038"/>
<path d="M51.354 25.8498C51.3144 25.8498 51.2712 25.8319 51.2424 25.8034C51.1776 25.7391 51.1776 25.6356 51.2424 25.5749C51.8832 24.9396 52.6249 25.0859 52.6573 25.0895C52.7473 25.1074 52.8012 25.193 52.7832 25.2823C52.7652 25.3715 52.6788 25.425 52.5888 25.4072C52.56 25.4 51.984 25.2965 51.4728 25.8034C51.4404 25.8355 51.3972 25.8534 51.354 25.8498Z" fill="#263038"/>
<path d="M56.0772 27.2954L55.4148 27.0777C55.4148 27.0777 55.7388 27.6095 56.0772 27.2954Z" fill="#263038"/>
<path opacity="0.2" d="M66.546 43.2187C66.4776 45.3318 66.5676 47.2307 66.7368 48.9226C64.926 47.0379 62.676 43.4792 62.5284 41.6945L66.546 43.2187Z" fill="black"/>
<path d="M78.3 36.5046L78.6961 34.238L82.2457 35.5979C82.2457 35.5979 81.4248 37.7074 79.9092 38.6391L79.488 38.3749C78.8004 37.943 78.3648 37.2577 78.3 36.5046Z" fill="#FFC6BD"/>
<path d="M80.91 32.9743L82.0764 33.6026C82.6092 33.8881 82.8072 34.5485 82.5228 35.0767L82.2456 35.5943L78.696 34.2344L79.5384 33.2313C79.8768 32.8316 80.4492 32.7209 80.9136 32.9708L80.91 32.9743Z" fill="#FFC6BD"/>
<path d="M65.9124 39.0923L66.3624 39.5563L66.8556 40.0525C67.1904 40.3773 67.5252 40.7093 67.8708 41.0234C68.5548 41.6623 69.264 42.2548 69.9696 42.8081C70.6788 43.3471 71.4024 43.8325 72.0936 44.2002C72.7884 44.5642 73.4436 44.7891 73.926 44.8498L72.9576 45.0283C72.72 45.1425 72.7344 45.1924 72.7848 45.1532C72.8388 45.1211 72.9396 45.039 73.0512 44.9283C73.2744 44.707 73.53 44.3929 73.7712 44.0538C74.2608 43.3649 74.7576 42.5832 75.222 41.7729C75.7008 40.9663 76.1616 40.1274 76.6224 39.2851L78.0084 36.7436L78.0192 36.7222C78.4008 36.019 79.2864 35.7585 79.9956 36.1368C80.5536 36.4367 80.838 37.0506 80.7408 37.6396C80.5752 38.6676 80.3484 39.6384 80.0964 40.6272C79.8408 41.6123 79.542 42.5868 79.2036 43.5684C78.8472 44.5428 78.4728 45.528 77.9508 46.5274C77.688 47.0307 77.4 47.5376 77.004 48.0837C76.806 48.3585 76.5756 48.6405 76.266 48.9403C75.9528 49.233 75.564 49.5793 74.8656 49.8791C74.6028 49.9933 74.3292 50.0504 74.0556 50.054H73.8972C72.3024 50.0861 70.9416 49.6899 69.768 49.1973C69.1776 48.9475 68.6196 48.6726 68.0904 48.3799C67.5684 48.0801 67.0644 47.7624 66.582 47.434C65.6172 46.7773 64.7352 46.0598 63.8964 45.3102C63.4824 44.9319 63.072 44.55 62.6796 44.1502C62.4816 43.9503 62.2872 43.7468 62.0964 43.5398C61.8984 43.3221 61.7292 43.1329 61.5024 42.8688C60.4656 41.6552 60.6168 39.8348 61.8408 38.8068C63.0144 37.8216 64.7496 37.918 65.8044 38.9995L65.9052 39.103L65.9124 39.0923Z" fill="#FFC6BD"/>
<path d="M63.1188 37.7181C65.7576 37.7967 68.382 40.9413 68.382 40.9413C68.382 40.9413 67.3632 45.0997 64.4724 46.8915C62.8488 45.6351 61.4664 44.6285 61.4664 44.6285C59.166 41.2768 59.9328 39.0531 63.1152 37.7217L63.1188 37.7181Z" fill="#263038"/>
<path d="M51.7897 60.566C51.9841 61.6868 52.2181 62.5613 52.2937 62.8326C52.3081 62.8897 52.3477 62.9361 52.4017 62.9646C52.7869 63.1788 54.5437 64.0212 57.7657 63.8499C61.3837 63.6535 66.6469 61.7154 69.3901 59.6308C69.4729 59.5701 69.5017 59.4595 69.4621 59.3631C69.2317 58.8277 68.8861 58.2744 68.7241 58.021C68.6701 57.9353 68.5657 57.8996 68.4685 57.9282C67.2877 58.2816 59.8537 60.3947 52.0237 60.3019C51.8833 60.3019 51.7717 60.4268 51.7969 60.566H51.7897Z" fill="#00337C"/>
<path opacity="0.3" d="M51.7897 60.566C51.9841 61.6868 52.2181 62.5613 52.2937 62.8326C52.3081 62.8897 52.3477 62.9361 52.4017 62.9646C52.7869 63.1788 54.5437 64.0212 57.7657 63.8499C61.3837 63.6535 66.6469 61.7154 69.3901 59.6308C69.4729 59.5701 69.5017 59.4595 69.4621 59.3631C69.2317 58.8277 68.8861 58.2744 68.7241 58.021C68.6701 57.9353 68.5657 57.8996 68.4685 57.9282C67.2877 58.2816 59.8537 60.3947 52.0237 60.3019C51.8833 60.3019 51.7717 60.4268 51.7969 60.566H51.7897Z" fill="white"/>
<path d="M123.937 118.312H76.5396C72.8028 118.312 69.9228 115.281 70.1424 111.573L75.9204 13.8922C76.14 10.1871 79.3764 7.15314 83.1132 7.15314H130.511C134.248 7.15314 137.128 10.1836 136.908 13.8922L131.13 111.573C130.91 115.278 127.674 118.312 123.937 118.312Z" fill="#00337C"/>
<path opacity="0.8" d="M123.937 118.312H76.5396C72.8028 118.312 69.9228 115.281 70.1424 111.573L75.9204 13.8922C76.14 10.1871 79.3764 7.15314 83.1132 7.15314H130.511C134.248 7.15314 137.128 10.1836 136.908 13.8922L131.13 111.573C130.91 115.278 127.674 118.312 123.937 118.312Z" fill="white"/>
<path d="M123.656 116.356H77.58C74.952 116.356 72.9288 114.225 73.0836 111.619L78.8364 14.3669C78.9912 11.7613 81.2664 9.63031 83.8908 9.63031H129.967C132.595 9.63031 134.618 11.7613 134.464 14.3669L128.711 111.619C128.556 114.225 126.281 116.356 123.656 116.356Z" fill="#00337C"/>
<path d="M123.16 115.835H77.0832C74.4552 115.835 72.432 113.704 72.5868 111.098L78.3396 13.8458C78.4944 11.2401 80.7696 9.10919 83.394 9.10919H129.47C132.098 9.10919 134.122 11.2401 133.967 13.8458L128.214 111.098C128.059 113.704 125.784 115.835 123.16 115.835Z" fill="white"/>
<path opacity="0.1" d="M121.813 112.219H78.8544C77.2308 112.219 75.9816 110.902 76.0752 109.292L78.4764 68.7256C78.57 67.1158 79.9776 65.7987 81.6012 65.7987H124.56C126.184 65.7987 127.433 67.1158 127.339 68.7256L124.938 109.292C124.844 110.902 123.437 112.219 121.813 112.219Z" fill="#00337C"/>
<path opacity="0.1" d="M112.27 16.3229H99.7488C99.1692 16.3229 98.7192 15.8518 98.7552 15.2735C98.7876 14.6953 99.2916 14.2241 99.8748 14.2241H112.396C112.975 14.2241 113.425 14.6953 113.389 15.2735C113.357 15.8482 112.853 16.3229 112.27 16.3229Z" fill="#00337C"/>
<path opacity="0.1" d="M117.252 55.475C124.964 48.0492 125.49 36.1837 118.428 28.9725C111.365 21.7614 99.3874 21.9353 91.6751 29.3611C83.9628 36.7868 83.4363 48.6524 90.4991 55.8635C97.5618 63.0747 109.539 62.9007 117.252 55.475Z" fill="#00337C"/>
<path d="M91.224 54.8334C88.0488 51.496 86.454 47.0592 86.7312 42.344L87.0912 42.3654C86.8176 46.9807 88.38 51.3211 91.4868 54.5871L91.224 54.8334Z" fill="#00337C"/>
<path d="M122.191 42.4903L121.831 42.4689C121.925 40.8733 121.802 39.2957 121.46 37.7787L121.813 37.7001C122.159 39.2493 122.288 40.8591 122.191 42.4867V42.4903Z" fill="#00337C"/>
<path d="M120.427 34.6769C119.689 33.0493 118.685 31.5573 117.439 30.2473C115.715 28.434 113.648 27.0776 111.301 26.2174L111.427 25.8819C113.828 26.76 115.938 28.1485 117.702 30.001C118.976 31.3395 120.002 32.8637 120.758 34.5306L120.431 34.6769H120.427Z" fill="#00337C"/>
<path d="M115.606 53.7951C122.327 47.3239 122.787 36.9842 116.633 30.7007C110.479 24.4173 100.041 24.5696 93.3204 31.0409C86.5994 37.5121 86.1399 47.8518 92.294 54.1353C98.4481 60.4187 108.885 60.2664 115.606 53.7951Z" fill="#F8F8F8"/>
<path d="M102.632 44.632C102.632 44.632 102.64 44.632 102.643 44.632C103.435 44.4606 103.806 43.786 103.972 43.0222C103.99 42.9436 104.004 42.8651 104.018 42.783C104.022 42.758 104.026 42.7366 104.029 42.7116C104.076 42.3904 104.098 42.0584 104.101 41.7514C102.6 41.5872 101.34 40.4308 101.272 38.7032C101.218 37.3968 101.52 35.6977 102.233 34.3378C102.089 34.3556 101.92 34.4127 101.747 34.5377C101.718 34.5591 101.682 34.5662 101.65 34.5591C101.621 34.5519 101.592 34.5377 101.57 34.5091C101.531 34.4556 101.542 34.377 101.596 34.3378C101.884 34.1272 102.164 34.0808 102.373 34.0808C102.424 33.9951 102.474 33.9059 102.528 33.8238C102.301 33.8273 102.078 33.8309 101.862 33.8238C102.1 32.1747 105.3 30.7898 107.482 32.0533C108.454 32.2461 110.056 33.6203 110.056 33.6203C110.056 33.6203 110.117 34.8125 109.98 36.2545C109.836 37.743 109.48 39.4991 108.616 40.4736C108.842 39.9667 108.9 39.4349 108.846 38.8888C108.616 39.1101 108.353 39.2457 108.097 39.31C107.993 39.5348 107.878 39.7419 107.744 39.9382C107.406 41.4695 107.165 43.5112 107.68 44.6819C108.144 44.7105 108.594 44.7533 109.022 44.7997C109.058 44.8033 109.091 44.8104 109.127 44.8176C109.408 44.6534 109.681 44.4713 109.94 44.2679C113.177 41.7657 109.739 38.8388 110.552 36.151C111.362 33.4633 110.678 32.4424 108.464 32.3532C109.386 30.904 103.55 28.5803 100.987 33.092C98.6652 37.179 97.9164 39.2172 98.7516 42.4154C99.0144 43.4291 99.7416 44.2679 100.735 44.8747C100.897 44.8318 101.063 44.7962 101.232 44.7747C101.689 44.7176 102.164 44.6677 102.629 44.6284L102.632 44.632Z" fill="#263038"/>
<path d="M97.5959 50.9177C97.4375 50.65 97.3115 50.4073 97.2215 50.2074C96.9767 50.9284 96.7355 51.6494 96.4979 52.3598C96.2783 53.0022 96.0623 53.6447 95.8391 54.2587L95.5043 55.1261L95.3567 55.4687C95.3063 55.5651 95.3567 55.5115 95.3495 55.5365C95.2847 55.6329 95.0615 55.8364 94.8419 56.0255C94.7987 56.0612 94.7519 56.0969 94.7087 56.1362C95.6951 56.793 96.7607 57.3462 97.9019 57.7674C97.9271 56.1362 98.1287 54.4407 98.3447 53.9874C97.0739 53.0951 97.2683 52.1206 97.5923 50.9213L97.5959 50.9177Z" fill="#FFC6BD"/>
<path d="M98.8561 46.1026C98.8237 46.1419 98.7949 46.1847 98.7625 46.2275C98.7913 46.1847 98.8237 46.1454 98.8561 46.1062V46.1026Z" fill="#263038"/>
<path d="M98.0244 48.4941C98.0244 47.6803 98.2764 46.92 98.712 46.2953C97.7976 47.5554 97.02 49.7184 97.02 49.7184C97.02 49.7184 97.0848 49.9112 97.2216 50.2039C97.3116 50.4002 97.4376 50.6465 97.596 50.9142C97.7904 50.1967 98.028 49.4007 98.0244 48.4905V48.4941Z" fill="#263038"/>
<path d="M110.574 53.6733C110.192 53.1308 109.796 52.4455 109.44 51.7209C109.332 51.778 109.22 51.8351 109.105 51.8851C108.025 50.7536 107.104 49.8398 107.104 49.8398C105.757 47.0557 106.589 45.4673 109.141 44.8248C109.53 44.8962 109.904 45.0568 110.257 45.2709C109.93 45.0425 109.548 44.8854 109.127 44.8212C109.091 44.8141 109.058 44.8069 109.022 44.8033C108.594 44.7534 108.144 44.7141 107.68 44.6856C107.777 44.9461 105.469 48.2371 104.018 48.7797C103.424 47.2948 101.758 47.1949 101.758 47.1949C101.758 47.1949 100.202 46.8772 99.72 47.8481C100.037 45.8421 101.984 44.7855 102.632 44.632C102.168 44.6713 101.693 44.7213 101.236 44.7784C101.063 44.7998 100.901 44.8355 100.739 44.8783C99.9792 45.0818 99.3348 45.5208 98.8632 46.1062C98.8308 46.1455 98.7984 46.1847 98.7696 46.2275C98.7516 46.249 98.7336 46.2739 98.7192 46.2954C98.28 46.92 98.028 47.6803 98.0316 48.4941C98.0316 49.4043 97.794 50.2003 97.6032 50.9178C97.2792 52.1171 97.0848 53.0915 98.3556 53.9839C98.1432 54.4372 97.938 56.1327 97.9128 57.7639C99.6372 58.4028 101.52 58.7491 103.504 58.7491C106.002 58.7491 108.4 58.1958 110.581 57.2071C110.531 56.0649 110.516 54.7335 110.614 53.22C110.603 53.37 110.592 53.5234 110.585 53.6698L110.574 53.6733Z" fill="#263038"/>
<path d="M101.758 47.1948C101.758 47.1948 103.424 47.2983 104.018 48.7796C105.466 48.2371 107.777 44.9461 107.68 44.6855C107.68 44.6855 104.4 46.2667 101.758 47.1948Z" fill="white"/>
<path d="M102.64 44.6284C102.64 44.6284 102.632 44.6284 102.629 44.6284C101.984 44.7819 100.037 45.8384 99.7164 47.8445C100.199 46.8736 101.754 47.1913 101.754 47.1913C101.254 45.3137 102.636 44.6284 102.636 44.6284H102.64Z" fill="white"/>
<path d="M104.018 42.7795C104.022 42.7545 104.026 42.7331 104.029 42.7081C104.029 42.7331 104.022 42.7545 104.018 42.7795Z" fill="#FFC6BD"/>
<path d="M107.744 39.9418C107.46 40.3595 107.096 40.7235 106.578 41.084C106.38 41.2233 106.175 41.3339 105.966 41.4303C105.502 42.2298 104.67 42.8009 103.957 43.0829C103.961 43.0615 103.964 43.0401 103.968 43.0222C103.799 43.7861 103.428 44.4607 102.64 44.632C102.64 44.632 101.257 45.3209 101.758 47.1949C104.404 46.2668 107.68 44.6856 107.68 44.6856C107.165 43.5148 107.402 41.4731 107.744 39.9418Z" fill="#FFC6BD"/>
<path d="M104.101 41.7479C104.098 42.0584 104.076 42.3868 104.029 42.708C104.08 42.3832 104.098 42.0548 104.101 41.7479Z" fill="#263038"/>
<path opacity="0.2" d="M104.101 41.7479C104.098 42.0584 104.076 42.3868 104.029 42.708C104.08 42.3832 104.098 42.0548 104.101 41.7479Z" fill="black"/>
<path d="M105.966 41.4302C105.347 41.7194 104.706 41.8157 104.101 41.7515C104.098 42.0585 104.076 42.3904 104.029 42.7117C104.029 42.7366 104.022 42.7581 104.018 42.783C104.004 42.8616 103.99 42.9437 103.972 43.0222C103.968 43.0436 103.964 43.065 103.961 43.0829C104.674 42.8009 105.502 42.2298 105.97 41.4302H105.966Z" fill="#FFC6BD"/>
<path opacity="0.2" d="M105.966 41.4302C105.347 41.7194 104.706 41.8157 104.101 41.7515C104.098 42.0585 104.076 42.3904 104.029 42.7117C104.029 42.7366 104.022 42.7581 104.018 42.783C104.004 42.8616 103.99 42.9437 103.972 43.0222C103.968 43.0436 103.964 43.065 103.961 43.0829C104.674 42.8009 105.502 42.2298 105.97 41.4302H105.966Z" fill="black"/>
<path d="M105.966 41.4302C106.171 41.3338 106.376 41.2232 106.578 41.084C107.093 40.7235 107.46 40.3594 107.744 39.9418C107.878 39.7455 107.993 39.5384 108.097 39.3135C108.029 39.3314 107.96 39.3492 107.896 39.3564C107.294 39.4135 107.125 38.7424 107.399 38.1392C107.482 37.9572 107.608 37.7573 107.759 37.5824C107.59 37.0648 107.654 36.5044 107.867 36.0404C107.32 34.9267 106.74 33.9059 106.686 33.1492C105.221 33.5989 103.788 33.7952 102.532 33.8238C102.478 33.9059 102.427 33.9951 102.377 34.0808C102.575 34.0808 102.708 34.1308 102.719 34.1343C102.784 34.1593 102.816 34.2307 102.791 34.295C102.766 34.3592 102.694 34.3913 102.629 34.3663C102.614 34.3628 102.452 34.3092 102.229 34.3378C101.513 35.7013 101.214 37.3968 101.268 38.7032C101.34 40.4308 102.596 41.5873 104.098 41.7515C104.702 41.8157 105.343 41.7193 105.962 41.4302H105.966ZM105.163 34.4199C105.188 34.4199 105.757 34.5055 106.056 35.1231C106.085 35.1837 106.056 35.2587 105.998 35.2872C105.97 35.3015 105.937 35.3015 105.905 35.2944C105.872 35.2837 105.847 35.2623 105.829 35.2301C105.588 34.7304 105.134 34.6662 105.131 34.6662C105.062 34.6555 105.016 34.5948 105.023 34.527C105.034 34.4591 105.095 34.4127 105.163 34.4199ZM105.037 36.1832C105.037 36.1832 105.034 36.1832 105.03 36.1832C105.134 36.2439 105.188 36.4009 105.156 36.5794C105.116 36.7864 104.972 36.9328 104.836 36.9078C104.699 36.8828 104.62 36.6936 104.663 36.4866C104.684 36.3688 104.746 36.2724 104.814 36.2153C104.659 36.1582 104.566 35.944 104.566 35.944L105.041 36.1832H105.037ZM102.085 36.0368C102.107 35.919 102.168 35.8227 102.236 35.7655C102.082 35.7084 101.988 35.4943 101.988 35.4943L102.463 35.7334C102.463 35.7334 102.46 35.7334 102.456 35.7334C102.56 35.7941 102.614 35.9512 102.582 36.1296C102.542 36.3367 102.398 36.483 102.262 36.458C102.125 36.433 102.046 36.2439 102.089 36.0368H102.085ZM102.92 37.768C102.92 37.768 102.431 37.7965 102.204 37.486C102.676 37.1291 103.205 36.3081 103.205 36.3081L102.924 37.768H102.92ZM103.615 38.7246C103.583 38.7175 103.558 38.6853 103.565 38.6532C103.572 38.6211 103.604 38.5997 103.637 38.6032C104.551 38.7781 105.102 38.2249 105.109 38.2177C105.134 38.1928 105.174 38.1928 105.199 38.2177C105.224 38.2427 105.224 38.282 105.199 38.307C105.178 38.3284 104.735 38.7746 103.968 38.7639C103.856 38.7639 103.738 38.7496 103.612 38.7282L103.615 38.7246Z" fill="#FFC6BD"/>
<path d="M108.367 37.1326C108.216 36.7614 108.043 36.3973 107.87 36.0404C107.658 36.5044 107.593 37.0648 107.762 37.5824C107.939 37.3754 108.151 37.2076 108.371 37.1362L108.367 37.1326Z" fill="#263038"/>
<path d="M104.814 36.2154C104.742 36.2725 104.684 36.3688 104.663 36.4866C104.623 36.6937 104.702 36.8828 104.836 36.9078C104.972 36.9328 105.116 36.7865 105.156 36.5794C105.192 36.401 105.134 36.2439 105.03 36.1832C104.947 36.2368 104.875 36.2368 104.81 36.2154H104.814Z" fill="#263038"/>
<path d="M102.582 36.1297C102.618 35.9513 102.56 35.7942 102.456 35.7335C102.373 35.7871 102.301 35.7871 102.236 35.7656C102.164 35.8228 102.107 35.9191 102.085 36.0369C102.046 36.2439 102.125 36.4331 102.258 36.4581C102.395 36.4831 102.539 36.3368 102.578 36.1297H102.582Z" fill="#263038"/>
<path d="M102.456 35.7334C102.456 35.7334 102.46 35.7334 102.463 35.7334L101.988 35.4943C101.988 35.4943 102.082 35.7084 102.236 35.7655C102.298 35.7905 102.373 35.787 102.456 35.7334Z" fill="#263038"/>
<path d="M102.204 37.486C102.431 37.793 102.92 37.768 102.92 37.768L103.201 36.3081C103.201 36.3081 102.676 37.1326 102.2 37.486H102.204Z" fill="#ED8A7E"/>
<path d="M105.203 38.2142C105.178 38.1892 105.138 38.1928 105.113 38.2142C105.106 38.2213 104.555 38.7746 103.64 38.5997C103.604 38.5926 103.572 38.614 103.568 38.6497C103.561 38.6818 103.583 38.7175 103.619 38.7211C103.745 38.746 103.864 38.7568 103.975 38.7568C104.742 38.7675 105.185 38.3213 105.206 38.2999C105.232 38.2749 105.228 38.2356 105.206 38.2106L105.203 38.2142Z" fill="#263038"/>
<path d="M108.367 37.1327C108.148 37.2041 107.935 37.3754 107.759 37.5789C107.608 37.7538 107.482 37.9537 107.399 38.1357C107.125 38.739 107.294 39.41 107.896 39.3529C107.96 39.3458 108.029 39.3279 108.097 39.3101C108.353 39.2458 108.616 39.1102 108.846 38.8889C108.788 38.3071 108.605 37.7145 108.367 37.1292V37.1327Z" fill="#FFC6BD"/>
<path d="M106.762 32.6138C106.783 32.0998 107.078 31.9749 107.482 32.057C105.3 30.7934 102.1 32.1783 101.862 33.8274C102.078 33.831 102.301 33.831 102.528 33.8274C103.788 33.7988 105.221 33.6025 106.682 33.1528C106.668 32.9564 106.69 32.7744 106.758 32.6174L106.762 32.6138Z" fill="#263038"/>
<path d="M106.762 32.6138C106.693 32.7708 106.672 32.9529 106.686 33.1492C106.74 33.9059 107.32 34.9232 107.867 36.0404C108.043 36.3974 108.216 36.765 108.364 37.1327C108.601 37.7145 108.785 38.3106 108.842 38.8924C108.896 39.4385 108.842 39.9703 108.612 40.4772C109.48 39.5027 109.836 37.7466 109.976 36.2582C110.113 34.8197 110.052 33.6239 110.052 33.6239C110.052 33.6239 108.446 32.2497 107.478 32.0569C107.075 31.9784 106.78 32.0998 106.758 32.6138H106.762Z" fill="#263038"/>
<path d="M105.131 34.6625C105.131 34.6625 105.592 34.7268 105.829 35.2265C105.844 35.2586 105.872 35.2801 105.905 35.2908C105.934 35.3015 105.966 35.2979 105.998 35.2836C106.06 35.2551 106.088 35.1801 106.056 35.1194C105.757 34.5019 105.188 34.4198 105.163 34.4163C105.095 34.4091 105.034 34.4555 105.023 34.5233C105.016 34.5912 105.062 34.6518 105.131 34.6625Z" fill="#263038"/>
<path d="M102.632 34.3663C102.697 34.3913 102.769 34.3592 102.794 34.2949C102.82 34.2307 102.787 34.1593 102.722 34.1343C102.712 34.1307 102.578 34.0843 102.38 34.0807C102.172 34.0807 101.891 34.1271 101.603 34.3377C101.549 34.377 101.534 34.4555 101.578 34.5091C101.599 34.5341 101.624 34.5519 101.657 34.559C101.689 34.5662 101.725 34.5591 101.754 34.5376C101.927 34.4127 102.096 34.3556 102.24 34.3377C102.463 34.3092 102.625 34.3627 102.64 34.3663H102.632Z" fill="#263038"/>
<path d="M104.814 36.2154C104.875 36.2404 104.951 36.2368 105.034 36.1832C105.034 36.1832 105.037 36.1832 105.041 36.1832L104.566 35.9441C104.566 35.9441 104.659 36.1583 104.814 36.2154Z" fill="#263038"/>
<path d="M110.574 53.6733C110.581 53.527 110.596 53.3735 110.603 53.2236C110.401 52.9059 110.192 52.5846 109.984 52.2634C109.847 52.0599 109.706 51.8565 109.57 51.653C109.526 51.678 109.483 51.6958 109.44 51.7208C109.796 52.4454 110.192 53.1343 110.574 53.6733Z" fill="#263038"/>
<path opacity="0.2" d="M110.574 53.6733C110.581 53.527 110.596 53.3735 110.603 53.2236C110.401 52.9059 110.192 52.5846 109.984 52.2634C109.847 52.0599 109.706 51.8565 109.57 51.653C109.526 51.678 109.483 51.6958 109.44 51.7208C109.796 52.4454 110.192 53.1343 110.574 53.6733Z" fill="black"/>
<path d="M111.643 56.6288L111.632 56.6859C113.069 55.9149 114.394 54.9548 115.564 53.8304C115.358 53.2272 115.124 52.6775 114.872 52.1421C114.516 51.3747 114.124 50.6608 113.706 49.9612C113.35 49.3472 112.964 48.7618 112.572 48.1836C112.205 48.9296 111.19 50.725 109.566 51.6495C109.706 51.853 109.843 52.0564 109.98 52.2599C110.192 52.5811 110.398 52.8988 110.599 53.22C110.776 53.502 110.948 53.7804 111.11 54.0588C111.384 54.5407 111.647 55.0262 111.845 55.4688L111.809 55.7115C111.762 56.0078 111.704 56.3147 111.643 56.6253V56.6288Z" fill="#FFC6BD"/>
<path d="M107.104 49.8398C107.104 49.8398 108.025 50.7536 109.105 51.8851C109.22 51.8351 109.328 51.778 109.44 51.7209C109.483 51.6995 109.526 51.678 109.57 51.6531C111.193 50.7286 112.208 48.9332 112.576 48.1872C112.68 47.9766 112.734 47.8481 112.734 47.8481C112.734 47.8481 111.694 46.1347 110.261 45.2709C109.908 45.0603 109.534 44.8962 109.145 44.8248C106.592 45.4673 105.761 47.0557 107.107 49.8398H107.104Z" fill="#263038"/>
<path d="M124.366 14.035H129.438C129.722 14.035 129.967 13.8065 129.982 13.5245C130 13.2425 129.78 13.0141 129.499 13.0141H124.427C124.142 13.0141 123.898 13.2425 123.883 13.5245C123.865 13.8065 124.085 14.035 124.369 14.035H124.366Z" fill="#00337C"/>
<path d="M124.261 15.784H129.334C129.618 15.784 129.863 15.5555 129.877 15.2735C129.895 14.9916 129.676 14.7631 129.391 14.7631H124.319C124.034 14.7631 123.79 14.9916 123.775 15.2735C123.757 15.5555 123.977 15.784 124.258 15.784H124.261Z" fill="#00337C"/>
<path d="M83.2248 15.784H88.2972C88.5816 15.784 88.8264 15.5555 88.8408 15.2735C88.8588 14.9916 88.6392 14.7631 88.3548 14.7631H83.2824C82.998 14.7631 82.7532 14.9916 82.7388 15.2735C82.7208 15.5555 82.9404 15.784 83.2248 15.784Z" fill="#00337C"/>
<path d="M124.157 17.5366H129.229C129.514 17.5366 129.758 17.3082 129.773 17.0262C129.791 16.7442 129.571 16.5157 129.287 16.5157H124.214C123.93 16.5157 123.685 16.7442 123.671 17.0262C123.653 17.3082 123.872 17.5366 124.157 17.5366Z" fill="#00337C"/>
<path d="M117.49 81.5755H86.8032C84.3588 81.5755 82.476 79.5945 82.62 77.1708C82.764 74.7472 84.8808 72.7662 87.3252 72.7662H118.012C120.456 72.7662 122.339 74.7472 122.195 77.1708C122.051 79.5945 119.934 81.5755 117.49 81.5755Z" fill="white"/>
<path d="M116.791 93.4152H86.1048C83.6604 93.4152 81.7776 91.4342 81.9216 89.0106C82.0656 86.5869 84.1824 84.6059 86.6268 84.6059H117.313C119.758 84.6059 121.64 86.5905 121.496 89.0106C121.352 91.4342 119.236 93.4152 116.791 93.4152Z" fill="white"/>
<path d="M116.089 105.251H85.4029C82.9585 105.251 81.0757 103.27 81.2197 100.847C81.3637 98.423 83.4805 96.442 85.9249 96.442H116.611C119.056 96.442 120.938 98.423 120.794 100.847C120.65 103.27 118.534 105.251 116.089 105.251Z" fill="white"/>
<path d="M89.1865 78.7491C90.1208 77.8495 90.1853 76.4129 89.3307 75.5403C88.4761 74.6678 87.0259 74.6896 86.0916 75.5892C85.1574 76.4887 85.0928 77.9253 85.9475 78.7979C86.8021 79.6705 88.2523 79.6486 89.1865 78.7491Z" fill="#00337C"/>
<path d="M87.3684 86.8583L87.6708 87.9898C87.7068 88.1183 87.822 88.2075 87.9588 88.2075H89.1576C89.4636 88.2075 89.568 88.5966 89.3088 88.775L88.2972 89.4746C88.182 89.5532 88.128 89.6959 88.1604 89.828L88.4628 90.9595C88.542 91.2486 88.1929 91.4914 87.9553 91.3129L87.0264 90.6133C86.9184 90.5348 86.7708 90.5348 86.652 90.6133L85.6404 91.3129C85.3812 91.4914 85.0608 91.2522 85.1724 90.9595L85.6116 89.828C85.662 89.6995 85.6224 89.5567 85.518 89.4746L84.5892 88.775C84.3516 88.5966 84.5028 88.2075 84.8088 88.2075H86.0076C86.1444 88.2075 86.2704 88.1183 86.3208 87.9898L86.76 86.8583C86.8716 86.5691 87.2856 86.5691 87.3648 86.8583H87.3684Z" fill="#00337C"/>
<path d="M88.2108 99.6475L88.0236 102.824C88.0092 103.096 87.7716 103.32 87.4944 103.32H84.69C84.4164 103.32 84.204 103.099 84.222 102.824L84.456 98.8694C84.4704 98.5945 84.708 98.3732 84.9852 98.3732H87.0012L88.2108 99.6475Z" fill="#00337C"/>
<path d="M86.9976 98.3732L88.2072 99.6475H87.4188C87.1416 99.6475 86.9328 99.4262 86.9508 99.1513L86.9976 98.3696M86.6772 97.4951L86.6268 98.3482L86.58 99.1299C86.5656 99.3655 86.6484 99.5868 86.8068 99.7546C86.9652 99.9223 87.1848 100.015 87.4224 100.015H89.0712L88.4808 99.394L87.2712 98.1198L86.6808 97.4951H86.6772Z" fill="white"/>
<path opacity="0.2" d="M116.46 76.7031H93.4992C93.0996 76.7031 92.7936 76.3818 92.8188 75.9856C92.8404 75.5894 93.186 75.2682 93.5856 75.2682H116.546C116.946 75.2682 117.252 75.5894 117.227 75.9856C117.205 76.3818 116.86 76.7031 116.46 76.7031Z" fill="#00337C"/>
<path opacity="0.2" d="M112.108 79.0697H93.3588C92.9592 79.0697 92.6533 78.7485 92.6785 78.3523C92.7001 77.9561 93.0457 77.6348 93.4453 77.6348H112.194C112.594 77.6348 112.9 77.9561 112.874 78.3523C112.853 78.7485 112.507 79.0697 112.108 79.0697Z" fill="#00337C"/>
<path opacity="0.2" d="M115.704 89.4745H109.368C108.968 89.4745 108.626 89.7958 108.601 90.192C108.58 90.5882 108.886 90.9095 109.282 90.9095H115.618C116.017 90.9095 116.359 90.5882 116.384 90.192C116.406 89.7958 116.1 89.4745 115.704 89.4745Z" fill="#00337C"/>
<path opacity="0.2" d="M105.664 89.4745H92.7396C92.34 89.4745 91.998 89.7958 91.9728 90.192C91.9512 90.5882 92.2572 90.9095 92.6532 90.9095H105.577C105.977 90.9095 106.319 90.5882 106.344 90.192C106.366 89.7958 106.06 89.4745 105.664 89.4745Z" fill="#00337C"/>
<path opacity="0.2" d="M111.632 87.1046H92.8836C92.484 87.1046 92.142 87.4258 92.1168 87.822C92.0952 88.2182 92.4012 88.5395 92.7972 88.5395H111.546C111.946 88.5395 112.288 88.2182 112.313 87.822C112.334 87.4258 112.028 87.1046 111.632 87.1046Z" fill="#00337C"/>
<path opacity="0.2" d="M115.002 101.311H92.0412C91.6416 101.311 91.2996 101.632 91.2744 102.028C91.2528 102.424 91.5588 102.746 91.9548 102.746H114.916C115.315 102.746 115.657 102.424 115.682 102.028C115.704 101.632 115.398 101.311 115.002 101.311Z" fill="#00337C"/>
<path opacity="0.2" d="M110.93 98.9443H92.1816C91.782 98.9443 91.44 99.2655 91.4148 99.6617C91.3932 100.058 91.6992 100.379 92.0952 100.379H110.844C111.244 100.379 111.586 100.058 111.611 99.6617C111.632 99.2655 111.326 98.9443 110.93 98.9443Z" fill="#00337C"/>
</g>
<defs>
<clipPath id="clip0_212_2369">
<rect width="180" height="133" fill="white"/>
</clipPath>
</defs>
</svg>
